<?xml version="1.0" encoding="UTF-8"?>
<!--Generator: Apple Native CoreSVG 123-->
<!DOCTYPE svg
PUBLIC "-//W3C//DTD SVG 1.1//EN"
       "http://www.w3.org/Graphics/SVG/1.1/DTD/svg11.dtd">
<svg version="1.1" xmlns="http://www.w3.org/2000/svg" xmlns:xlink="http://www.w3.org/1999/xlink" width="3300" height="2200">
 <!--glyph: "uni10007C.medium", point size: 100.000000, font version: "Version 15.0d7e11", template writer version: "5"-->
 <g id="Notes">
  <rect height="2200" id="artboard" style="fill:white;opacity:1" width="3300" x="0" y="0"/>
  <line id="" style="fill:none;stroke:black;opacity:1;stroke-width:0.5;" x1="263" x2="3036" y1="292" y2="292"/>
  <text style="stroke:none;fill:black;font-family:-apple-system,&quot;SF Pro Display&quot;,&quot;SF Pro Text&quot;,Helvetica,sans-serif;font-weight:bold;" transform="matrix(1 0 0 1 263 322)">Weight/Scale Variations</text>
  <text style="stroke:none;fill:black;font-family:-apple-system,&quot;SF Pro Display&quot;,&quot;SF Pro Text&quot;,Helvetica,sans-serif;text-anchor:middle;" transform="matrix(1 0 0 1 559.711 322)">Ultralight</text>
  <text style="stroke:none;fill:black;font-family:-apple-system,&quot;SF Pro Display&quot;,&quot;SF Pro Text&quot;,Helvetica,sans-serif;text-anchor:middle;" transform="matrix(1 0 0 1 856.422 322)">Thin</text>
  <text style="stroke:none;fill:black;font-family:-apple-system,&quot;SF Pro Display&quot;,&quot;SF Pro Text&quot;,Helvetica,sans-serif;text-anchor:middle;" transform="matrix(1 0 0 1 1153.13 322)">Light</text>
  <text style="stroke:none;fill:black;font-family:-apple-system,&quot;SF Pro Display&quot;,&quot;SF Pro Text&quot;,Helvetica,sans-serif;text-anchor:middle;" transform="matrix(1 0 0 1 1449.84 322)">Regular</text>
  <text style="stroke:none;fill:black;font-family:-apple-system,&quot;SF Pro Display&quot;,&quot;SF Pro Text&quot;,Helvetica,sans-serif;text-anchor:middle;" transform="matrix(1 0 0 1 1746.56 322)">Medium</text>
  <text style="stroke:none;fill:black;font-family:-apple-system,&quot;SF Pro Display&quot;,&quot;SF Pro Text&quot;,Helvetica,sans-serif;text-anchor:middle;" transform="matrix(1 0 0 1 2043.27 322)">Semibold</text>
  <text style="stroke:none;fill:black;font-family:-apple-system,&quot;SF Pro Display&quot;,&quot;SF Pro Text&quot;,Helvetica,sans-serif;text-anchor:middle;" transform="matrix(1 0 0 1 2339.98 322)">Bold</text>
  <text style="stroke:none;fill:black;font-family:-apple-system,&quot;SF Pro Display&quot;,&quot;SF Pro Text&quot;,Helvetica,sans-serif;text-anchor:middle;" transform="matrix(1 0 0 1 2636.69 322)">Heavy</text>
  <text style="stroke:none;fill:black;font-family:-apple-system,&quot;SF Pro Display&quot;,&quot;SF Pro Text&quot;,Helvetica,sans-serif;text-anchor:middle;" transform="matrix(1 0 0 1 2933.4 322)">Black</text>
  <line id="" style="fill:none;stroke:black;opacity:1;stroke-width:0.5;" x1="263" x2="3036" y1="1903" y2="1903"/>
  <g id="" transform="matrix(1 0 0 1 263 1933)">
   <path d="M 9.24805 0.830078 C 13.5547 0.830078 17.1387 -2.74414 17.1387 -7.05078 C 17.1387 -11.3574 13.5449 -14.9316 9.23828 -14.9316 C 4.94141 -14.9316 1.36719 -11.3574 1.36719 -7.05078 C 1.36719 -2.74414 4.95117 0.830078 9.24805 0.830078 Z M 9.24805 -0.654297 C 5.70312 -0.654297 2.87109 -3.49609 2.87109 -7.05078 C 2.87109 -10.6055 5.69336 -13.4473 9.23828 -13.4473 C 12.793 -13.4473 15.6348 -10.6055 15.6445 -7.05078 C 15.6543 -3.49609 12.8027 -0.654297 9.24805 -0.654297 Z M 9.22852 -3.42773 C 9.69727 -3.42773 9.9707 -3.74023 9.9707 -4.25781 L 9.9707 -6.31836 L 12.1973 -6.31836 C 12.6953 -6.31836 13.0371 -6.57227 13.0371 -7.04102 C 13.0371 -7.51953 12.7148 -7.7832 12.1973 -7.7832 L 9.9707 -7.7832 L 9.9707 -10.0098 C 9.9707 -10.5273 9.69727 -10.8496 9.22852 -10.8496 C 8.75977 -10.8496 8.50586 -10.5078 8.50586 -10.0098 L 8.50586 -7.7832 L 6.29883 -7.7832 C 5.78125 -7.7832 5.44922 -7.51953 5.44922 -7.04102 C 5.44922 -6.57227 5.80078 -6.31836 6.29883 -6.31836 L 8.50586 -6.31836 L 8.50586 -4.25781 C 8.50586 -3.75977 8.75977 -3.42773 9.22852 -3.42773 Z"/>
  </g>
  <g id="" transform="matrix(1 0 0 1 281.506 1933)">
   <path d="M 11.709 2.91016 C 17.1582 2.91016 21.6699 -1.60156 21.6699 -7.05078 C 21.6699 -12.4902 17.1484 -17.0117 11.6992 -17.0117 C 6.25977 -17.0117 1.74805 -12.4902 1.74805 -7.05078 C 1.74805 -1.60156 6.26953 2.91016 11.709 2.91016 Z M 11.709 1.25 C 7.09961 1.25 3.41797 -2.44141 3.41797 -7.05078 C 3.41797 -11.6504 7.08984 -15.3516 11.6992 -15.3516 C 16.3086 -15.3516 20 -11.6504 20.0098 -7.05078 C 20.0195 -2.44141 16.3184 1.25 11.709 1.25 Z M 11.6895 -2.41211 C 12.207 -2.41211 12.5195 -2.77344 12.5195 -3.33984 L 12.5195 -6.23047 L 15.5762 -6.23047 C 16.123 -6.23047 16.5039 -6.51367 16.5039 -7.03125 C 16.5039 -7.55859 16.1426 -7.86133 15.5762 -7.86133 L 12.5195 -7.86133 L 12.5195 -10.9277 C 12.5195 -11.5039 12.207 -11.8555 11.6895 -11.8555 C 11.1719 -11.8555 10.8789 -11.4844 10.8789 -10.9277 L 10.8789 -7.86133 L 7.83203 -7.86133 C 7.26562 -7.86133 6.89453 -7.55859 6.89453 -7.03125 C 6.89453 -6.51367 7.28516 -6.23047 7.83203 -6.23047 L 10.8789 -6.23047 L 10.8789 -3.33984 C 10.8789 -2.79297 11.1719 -2.41211 11.6895 -2.41211 Z"/>
  </g>
  <g id="" transform="matrix(1 0 0 1 304.924 1933)">
   <path d="M 14.9707 5.67383 C 21.9336 5.67383 27.6953 -0.078125 27.6953 -7.04102 C 27.6953 -14.0039 21.9238 -19.7559 14.9609 -19.7559 C 8.00781 -19.7559 2.25586 -14.0039 2.25586 -7.04102 C 2.25586 -0.078125 8.01758 5.67383 14.9707 5.67383 Z M 14.9707 3.85742 C 8.93555 3.85742 4.08203 -1.00586 4.08203 -7.04102 C 4.08203 -13.0762 8.92578 -17.9395 14.9609 -17.9395 C 21.0059 -17.9395 25.8594 -13.0762 25.8691 -7.04102 C 25.8789 -1.00586 21.0156 3.85742 14.9707 3.85742 Z M 14.9512 -1.06445 C 15.5176 -1.06445 15.8691 -1.45508 15.8691 -2.06055 L 15.8691 -6.13281 L 20.1074 -6.13281 C 20.6934 -6.13281 21.1133 -6.46484 21.1133 -7.02148 C 21.1133 -7.59766 20.7227 -7.93945 20.1074 -7.93945 L 15.8691 -7.93945 L 15.8691 -12.1875 C 15.8691 -12.8027 15.5176 -13.1934 14.9512 -13.1934 C 14.3848 -13.1934 14.0625 -12.7832 14.0625 -12.1875 L 14.0625 -7.93945 L 9.83398 -7.93945 C 9.21875 -7.93945 8.80859 -7.59766 8.80859 -7.02148 C 8.80859 -6.46484 9.23828 -6.13281 9.83398 -6.13281 L 14.0625 -6.13281 L 14.0625 -2.06055 C 14.0625 -1.47461 14.3848 -1.06445 14.9512 -1.06445 Z"/>
  </g>
  <text style="stroke:none;fill:black;font-family:-apple-system,&quot;SF Pro Display&quot;,&quot;SF Pro Text&quot;,Helvetica,sans-serif;font-weight:bold;" transform="matrix(1 0 0 1 263 1953)">Design Variations</text>
  <text style="stroke:none;fill:black;font-family:-apple-system,&quot;SF Pro Display&quot;,&quot;SF Pro Text&quot;,Helvetica,sans-serif;" transform="matrix(1 0 0 1 263 1971)">Symbols are supported in up to nine weights and three scales.</text>
  <text style="stroke:none;fill:black;font-family:-apple-system,&quot;SF Pro Display&quot;,&quot;SF Pro Text&quot;,Helvetica,sans-serif;" transform="matrix(1 0 0 1 263 1989)">For optimal layout with text and other symbols, vertically align</text>
  <text style="stroke:none;fill:black;font-family:-apple-system,&quot;SF Pro Display&quot;,&quot;SF Pro Text&quot;,Helvetica,sans-serif;" transform="matrix(1 0 0 1 263 2007)">symbols with the adjacent text.</text>
  <rect height="14" id="" style="fill:#00AEEF;stroke:none;opacity:0.4;" width="3" x="776" y="1919"/>
  <g id="" transform="matrix(1 0 0 1 779 1933)">
   <path d="M 10.5273 0 L 12.373 0 L 7.17773 -14.0918 L 5.43945 -14.0918 L 0.244141 0 L 2.08984 0 L 3.50586 -4.0332 L 9.11133 -4.0332 Z M 6.2793 -11.9531 L 6.33789 -11.9531 L 8.59375 -5.52734 L 4.02344 -5.52734 Z"/>
  </g>
  <rect height="14" id="" style="fill:#00AEEF;stroke:none;opacity:0.4;" width="3" x="791.617" y="1919"/>
  <text style="stroke:none;fill:black;font-family:-apple-system,&quot;SF Pro Display&quot;,&quot;SF Pro Text&quot;,Helvetica,sans-serif;font-weight:bold;" transform="matrix(1 0 0 1 776 1953)">Margins</text>
  <text style="stroke:none;fill:black;font-family:-apple-system,&quot;SF Pro Display&quot;,&quot;SF Pro Text&quot;,Helvetica,sans-serif;" transform="matrix(1 0 0 1 776 1971)">Leading and trailing margins on the left and right side of each symbol</text>
  <text style="stroke:none;fill:black;font-family:-apple-system,&quot;SF Pro Display&quot;,&quot;SF Pro Text&quot;,Helvetica,sans-serif;" transform="matrix(1 0 0 1 776 1989)">can be adjusted by modifying the width of the blue rectangles.</text>
  <text style="stroke:none;fill:black;font-family:-apple-system,&quot;SF Pro Display&quot;,&quot;SF Pro Text&quot;,Helvetica,sans-serif;" transform="matrix(1 0 0 1 776 2007)">Modifications are automatically applied proportionally to all</text>
  <text style="stroke:none;fill:black;font-family:-apple-system,&quot;SF Pro Display&quot;,&quot;SF Pro Text&quot;,Helvetica,sans-serif;" transform="matrix(1 0 0 1 776 2025)">scales and weights.</text>
  <g id="" transform="matrix(1 0 0 1 1289 1933)">
   <path d="M 2.83203 3.11523 L 4.375 4.6582 C 5.22461 5.48828 6.19141 5.41992 7.06055 4.46289 L 17.2754 -6.66016 C 17.7051 -6.36719 18.0957 -6.37695 18.5645 -6.47461 L 19.6094 -6.68945 L 20.3027 -5.99609 L 20.2539 -5.47852 C 20.1855 -4.95117 20.3516 -4.53125 20.8496 -4.0332 L 21.6602 -3.22266 C 22.168 -2.71484 22.8223 -2.68555 23.3008 -3.16406 L 26.5527 -6.41602 C 27.0312 -6.89453 27.0117 -7.54883 26.5039 -8.05664 L 25.6836 -8.87695 C 25.1855 -9.375 24.7754 -9.55078 24.2383 -9.47266 L 23.7109 -9.41406 L 23.0566 -10.0781 L 23.3398 -11.2207 C 23.4863 -11.7871 23.3398 -12.2559 22.7148 -12.8613 L 20.3027 -15.2539 C 16.7578 -18.7793 12.2266 -18.6719 9.11133 -15.5371 C 8.69141 -15.1074 8.64258 -14.5215 8.91602 -14.0918 C 9.15039 -13.7207 9.62891 -13.4961 10.2734 -13.6621 C 11.7871 -14.043 13.3008 -13.9258 14.7852 -12.9199 L 14.1602 -11.3379 C 13.9258 -10.752 13.9453 -10.2734 14.1797 -9.83398 L 3.01758 0.439453 C 2.08008 1.30859 1.97266 2.25586 2.83203 3.11523 Z M 10.6738 -15.1465 C 13.3398 -17.1387 16.6504 -16.8262 19.0527 -14.4141 L 21.6797 -11.8066 C 21.9141 -11.5723 21.9434 -11.3867 21.8848 -11.0938 L 21.5039 -9.53125 L 23.0762 -7.95898 L 24.043 -8.04688 C 24.3262 -8.07617 24.4141 -8.05664 24.6387 -7.83203 L 25.2637 -7.20703 L 22.5098 -4.46289 L 21.8848 -5.07812 C 21.6602 -5.30273 21.6406 -5.40039 21.6699 -5.68359 L 21.7578 -6.64062 L 20.1953 -8.20312 L 18.5742 -7.89062 C 18.291 -7.83203 18.1445 -7.83203 17.9102 -8.07617 L 15.7324 -10.2539 C 15.5078 -10.4883 15.4785 -10.625 15.6055 -10.9473 L 16.5527 -13.2227 C 14.9512 -14.7559 12.8418 -15.6055 10.8008 -14.9512 C 10.7129 -14.9219 10.6445 -14.9414 10.6152 -14.9805 C 10.5859 -15.0293 10.5859 -15.0781 10.6738 -15.1465 Z M 4.10156 2.41211 C 3.61328 1.91406 3.78906 1.61133 4.12109 1.30859 L 15.0781 -8.80859 L 16.3086 -7.57812 L 6.15234 3.34961 C 5.84961 3.68164 5.46875 3.7793 5.06836 3.37891 Z"/>
  </g>
  <text style="stroke:none;fill:black;font-family:-apple-system,&quot;SF Pro Display&quot;,&quot;SF Pro Text&quot;,Helvetica,sans-serif;font-weight:bold;" transform="matrix(1 0 0 1 1289 1953)">Exporting</text>
  <text style="stroke:none;fill:black;font-family:-apple-system,&quot;SF Pro Display&quot;,&quot;SF Pro Text&quot;,Helvetica,sans-serif;" transform="matrix(1 0 0 1 1289 1971)">Symbols should be outlined when exporting to ensure the</text>
  <text style="stroke:none;fill:black;font-family:-apple-system,&quot;SF Pro Display&quot;,&quot;SF Pro Text&quot;,Helvetica,sans-serif;" transform="matrix(1 0 0 1 1289 1989)">design is preserved when submitting to Xcode.</text>
  <text id="template-version" style="stroke:none;fill:black;font-family:-apple-system,&quot;SF Pro Display&quot;,&quot;SF Pro Text&quot;,Helvetica,sans-serif;text-anchor:end;" transform="matrix(1 0 0 1 3036 1933)">Template v.1.0</text>
  <text style="stroke:none;fill:black;font-family:-apple-system,&quot;SF Pro Display&quot;,&quot;SF Pro Text&quot;,Helvetica,sans-serif;text-anchor:end;" transform="matrix(1 0 0 1 3036 1951)">Generated from arrow.right.circle</text>
  <text style="stroke:none;fill:black;font-family:-apple-system,&quot;SF Pro Display&quot;,&quot;SF Pro Text&quot;,Helvetica,sans-serif;text-anchor:end;" transform="matrix(1 0 0 1 3036 1969)">Typeset at 100 points</text>
  <text style="stroke:none;fill:black;font-family:-apple-system,&quot;SF Pro Display&quot;,&quot;SF Pro Text&quot;,Helvetica,sans-serif;" transform="matrix(1 0 0 1 263 726)">Small</text>
  <text style="stroke:none;fill:black;font-family:-apple-system,&quot;SF Pro Display&quot;,&quot;SF Pro Text&quot;,Helvetica,sans-serif;" transform="matrix(1 0 0 1 263 1156)">Medium</text>
  <text style="stroke:none;fill:black;font-family:-apple-system,&quot;SF Pro Display&quot;,&quot;SF Pro Text&quot;,Helvetica,sans-serif;" transform="matrix(1 0 0 1 263 1586)">Large</text>
 </g>
 <g id="Guides">
  <g id="H-reference" style="fill:#27AAE1;stroke:none;" transform="matrix(1 0 0 1 339 696)">
   <path d="M 54.9316 0 L 57.666 0 L 30.5664 -70.459 L 28.0762 -70.459 L 0.976562 0 L 3.66211 0 L 12.9395 -24.4629 L 45.7031 -24.4629 Z M 29.1992 -67.0898 L 29.4434 -67.0898 L 44.8242 -26.709 L 13.8184 -26.709 Z"/>
  </g>
  <line id="Baseline-S" style="fill:none;stroke:#27AAE1;opacity:1;stroke-width:0.577;" x1="263" x2="3036" y1="696" y2="696"/>
  <line id="Capline-S" style="fill:none;stroke:#27AAE1;opacity:1;stroke-width:0.577;" x1="263" x2="3036" y1="625.541" y2="625.541"/>
  <g id="H-reference" style="fill:#27AAE1;stroke:none;" transform="matrix(1 0 0 1 339 1126)">
   <path d="M 54.9316 0 L 57.666 0 L 30.5664 -70.459 L 28.0762 -70.459 L 0.976562 0 L 3.66211 0 L 12.9395 -24.4629 L 45.7031 -24.4629 Z M 29.1992 -67.0898 L 29.4434 -67.0898 L 44.8242 -26.709 L 13.8184 -26.709 Z"/>
  </g>
  <line id="Baseline-M" style="fill:none;stroke:#27AAE1;opacity:1;stroke-width:0.577;" x1="263" x2="3036" y1="1126" y2="1126"/>
  <line id="Capline-M" style="fill:none;stroke:#27AAE1;opacity:1;stroke-width:0.577;" x1="263" x2="3036" y1="1055.54" y2="1055.54"/>
  <g id="H-reference" style="fill:#27AAE1;stroke:none;" transform="matrix(1 0 0 1 339 1556)">
   <path d="M 54.9316 0 L 57.666 0 L 30.5664 -70.459 L 28.0762 -70.459 L 0.976562 0 L 3.66211 0 L 12.9395 -24.4629 L 45.7031 -24.4629 Z M 29.1992 -67.0898 L 29.4434 -67.0898 L 44.8242 -26.709 L 13.8184 -26.709 Z"/>
  </g>
  <line id="Baseline-L" style="fill:none;stroke:#27AAE1;opacity:1;stroke-width:0.577;" x1="263" x2="3036" y1="1556" y2="1556"/>
  <line id="Capline-L" style="fill:none;stroke:#27AAE1;opacity:1;stroke-width:0.577;" x1="263" x2="3036" y1="1485.54" y2="1485.54"/>
  <rect height="119.336" id="left-margin" style="fill:#00AEEF;stroke:none;opacity:0.4;" width="8.74023" x="1391.3" y="1030.79"/>
  <rect height="119.336" id="right-margin" style="fill:#00AEEF;stroke:none;opacity:0.4;" width="8.74023" x="1499.65" y="1030.79"/>
 </g>
 <g id="Symbols">
  <g id="Black-L" transform="matrix(1 0 0 1 2854.05 1556)">
   <path d="M 79.3457 32.8613 C 116.748 32.8613 147.412 2.19727 147.412 -35.2051 C 147.412 -72.6074 116.748 -103.271 79.2969 -103.271 C 41.8945 -103.271 11.2793 -72.6074 11.2793 -35.2051 C 11.2793 2.19727 41.9434 32.8613 79.3457 32.8613 Z M 79.3457 12.4023 C 52.9785 12.4023 31.7383 -8.83789 31.7383 -35.2051 C 31.7383 -61.5723 52.9297 -82.8125 79.2969 -82.8125 C 105.664 -82.8125 126.953 -61.5723 126.953 -35.2051 C 127.002 -8.83789 105.713 12.4023 79.3457 12.4023 Z M 112.402 -35.1562 C 112.402 -38.0859 111.377 -40.3809 109.326 -42.334 L 87.8906 -62.3047 C 86.1328 -63.9648 84.5703 -64.5508 82.2754 -64.5508 C 78.2715 -64.5508 75.3906 -61.5723 75.3906 -57.3242 C 75.3906 -55.2246 76.3672 -53.1738 77.832 -51.9043 L 84.0332 -46.5332 L 89.6973 -42.9688 L 77.5879 -43.7988 L 54.3457 -43.7988 C 49.6582 -43.7988 46.3379 -40.0391 46.3379 -35.1562 C 46.3379 -30.3223 49.6582 -26.5137 54.3457 -26.5137 L 77.5879 -26.5137 L 89.6973 -27.3926 L 84.2773 -23.8281 L 77.832 -18.457 C 76.3184 -17.2363 75.3906 -15.1855 75.3906 -13.0371 C 75.3906 -8.74023 78.2715 -5.76172 82.2754 -5.76172 C 84.5703 -5.76172 86.1328 -6.39648 87.8906 -8.05664 L 109.326 -28.0273 C 111.328 -29.9316 112.402 -32.2754 112.402 -35.1562 Z"/>
  </g>
  <g id="Heavy-L" transform="matrix(1 0 0 1 2558.39 1556)">
   <path d="M 78.2715 31.7871 C 115.088 31.7871 145.312 1.61133 145.312 -35.2051 C 145.312 -72.0215 115.039 -102.197 78.2715 -102.197 C 41.4551 -102.197 11.2793 -72.0215 11.2793 -35.2051 C 11.2793 1.61133 41.5039 31.7871 78.2715 31.7871 Z M 78.2715 14.0137 C 51.0254 14.0137 29.0527 -7.95898 29.0527 -35.2051 C 29.0527 -62.5 50.9766 -84.4727 78.2715 -84.4727 C 105.518 -84.4727 127.49 -62.5 127.539 -35.2051 C 127.539 -7.95898 105.566 14.0137 78.2715 14.0137 Z M 111.23 -35.2051 C 111.23 -37.6953 110.303 -39.6484 108.496 -41.4062 L 86.9629 -61.8652 C 85.4004 -63.3301 83.9844 -63.8672 81.9824 -63.8672 C 78.3691 -63.8672 75.7812 -61.1816 75.7812 -57.4219 C 75.7812 -55.5176 76.6602 -53.7109 77.9297 -52.5879 L 84.8633 -46.3379 L 90.9668 -41.9922 L 78.8574 -42.7734 L 52.4902 -42.7734 C 48.3887 -42.7734 45.4102 -39.4531 45.4102 -35.2051 C 45.4102 -30.957 48.3887 -27.6367 52.4902 -27.6367 L 78.8574 -27.6367 L 91.0156 -28.3691 L 85.0098 -24.0723 L 77.9297 -17.8223 C 76.6113 -16.6992 75.7812 -14.8926 75.7812 -12.9883 C 75.7812 -9.22852 78.3691 -6.49414 81.9824 -6.49414 C 83.9844 -6.49414 85.4004 -7.08008 86.9629 -8.54492 L 108.496 -29.0039 C 110.254 -30.6641 111.23 -32.666 111.23 -35.2051 Z"/>
  </g>
  <g id="Bold-L" transform="matrix(1 0 0 1 2262.88 1556)">
   <path d="M 77.0996 30.6152 C 113.232 30.6152 142.92 0.878906 142.92 -35.2051 C 142.92 -71.3379 113.184 -101.025 77.0508 -101.025 C 40.9668 -101.025 11.2793 -71.3379 11.2793 -35.2051 C 11.2793 0.878906 41.0156 30.6152 77.0996 30.6152 Z M 77.0996 15.8691 C 48.8281 15.8691 26.0742 -6.93359 26.0742 -35.2051 C 26.0742 -63.4766 48.7793 -86.2793 77.0508 -86.2793 C 105.371 -86.2793 128.125 -63.4766 128.174 -35.2051 C 128.174 -6.93359 105.371 15.8691 77.0996 15.8691 Z M 109.863 -35.2539 C 109.863 -37.2559 109.131 -38.8672 107.568 -40.332 L 85.8398 -61.377 C 84.6191 -62.5977 83.3496 -63.0859 81.6406 -63.0859 C 78.5156 -63.0859 76.2695 -60.7422 76.2695 -57.5195 C 76.2695 -55.8594 77.002 -54.3457 78.0762 -53.3691 L 85.791 -46.0938 L 92.4316 -40.918 L 80.2734 -41.6016 L 50.4395 -41.6016 C 46.9238 -41.6016 44.3848 -38.8672 44.3848 -35.2051 C 44.3848 -31.6406 46.9238 -28.8574 50.4395 -28.8574 L 80.2734 -28.8574 L 92.4805 -29.4922 L 85.8887 -24.3652 L 78.0762 -17.0898 C 76.9043 -16.1133 76.2695 -14.5996 76.2695 -12.9395 C 76.2695 -9.7168 78.5156 -7.37305 81.6406 -7.37305 C 83.3496 -7.37305 84.6191 -7.86133 85.8398 -9.08203 L 107.568 -30.0781 C 109.082 -31.543 109.863 -33.1543 109.863 -35.2539 Z"/>
  </g>
  <g id="Semibold-L" transform="matrix(1 0 0 1 1966.97 1556)">
   <path d="M 76.2695 29.7852 C 111.914 29.7852 141.309 0.439453 141.309 -35.2051 C 141.309 -70.8496 111.865 -100.244 76.2695 -100.244 C 40.625 -100.244 11.2793 -70.8496 11.2793 -35.2051 C 11.2793 0.439453 40.6738 29.7852 76.2695 29.7852 Z M 76.2695 17.0898 C 47.3145 17.0898 24.0234 -6.25 24.0234 -35.2051 C 24.0234 -64.209 47.2656 -87.5 76.2695 -87.5 C 105.225 -87.5 128.564 -64.209 128.613 -35.2051 C 128.662 -6.25 105.273 17.0898 76.2695 17.0898 Z M 108.984 -35.2539 C 108.984 -36.9141 108.301 -38.2812 106.934 -39.6484 L 85.1074 -61.0352 C 84.082 -62.0605 82.9102 -62.5488 81.3965 -62.5488 C 78.6133 -62.5488 76.5625 -60.4492 76.5625 -57.5684 C 76.5625 -56.1035 77.1973 -54.7852 78.1738 -53.8574 L 86.377 -45.9473 L 93.457 -40.1855 L 81.25 -40.7715 L 49.0234 -40.7715 C 45.8984 -40.7715 43.7012 -38.4277 43.7012 -35.2539 C 43.7012 -32.1289 45.8984 -29.7363 49.0234 -29.7363 L 81.25 -29.7363 L 93.457 -30.2734 L 86.4746 -24.5117 L 78.1738 -16.6016 C 77.1484 -15.7227 76.5625 -14.4043 76.5625 -12.9395 C 76.5625 -10.0586 78.6133 -7.91016 81.3965 -7.91016 C 82.9102 -7.91016 84.082 -8.44727 85.1074 -9.42383 L 106.934 -30.8105 C 108.252 -32.0801 108.984 -33.4961 108.984 -35.2539 Z"/>
  </g>
  <g id="Medium-L" transform="matrix(1 0 0 1 1670.87 1556)">
   <path d="M 75.6836 29.1992 C 110.938 29.1992 140.088 0.0488281 140.088 -35.2051 C 140.088 -70.459 110.889 -99.6094 75.6348 -99.6094 C 40.3809 -99.6094 11.2793 -70.459 11.2793 -35.2051 C 11.2793 0.0488281 40.3809 29.1992 75.6836 29.1992 Z M 75.6836 18.0664 C 46.1426 18.0664 22.4609 -5.71289 22.4609 -35.2051 C 22.4609 -64.6973 46.1426 -88.4766 75.6348 -88.4766 C 105.127 -88.4766 128.906 -64.6973 128.906 -35.2051 C 128.955 -5.71289 105.176 18.0664 75.6836 18.0664 Z M 108.252 -35.2539 C 108.252 -36.7188 107.715 -37.8906 106.445 -39.1113 L 84.5703 -60.791 C 83.6426 -61.7188 82.5684 -62.1094 81.2012 -62.1094 C 78.6621 -62.1094 76.8066 -60.2051 76.8066 -57.666 C 76.8066 -56.2988 77.3926 -55.127 78.2715 -54.2969 L 86.8652 -45.8496 L 94.2383 -39.6484 L 81.9824 -40.1367 L 47.9492 -40.1367 C 45.166 -40.1367 43.1641 -38.0859 43.1641 -35.2539 C 43.1641 -32.4707 45.1172 -30.3711 47.9492 -30.3711 L 81.9824 -30.3711 L 94.2383 -30.8594 L 86.9141 -24.6582 L 78.2715 -16.2598 C 77.3438 -15.4297 76.8066 -14.2578 76.8066 -12.8906 C 76.8066 -10.3027 78.6621 -8.34961 81.2012 -8.34961 C 82.5684 -8.34961 83.6426 -8.83789 84.5703 -9.7168 L 106.445 -31.3965 C 107.617 -32.5195 108.252 -33.7402 108.252 -35.2539 Z"/>
  </g>
  <g id="Regular-L" transform="matrix(1 0 0 1 1374.97 1556)">
   <path d="M 74.8535 28.3691 C 109.668 28.3691 138.477 -0.390625 138.477 -35.2051 C 138.477 -70.0195 109.619 -98.7793 74.8047 -98.7793 C 40.0391 -98.7793 11.2793 -70.0195 11.2793 -35.2051 C 11.2793 -0.390625 40.0879 28.3691 74.8535 28.3691 Z M 74.8535 19.2871 C 44.6777 19.2871 20.4102 -5.0293 20.4102 -35.2051 C 20.4102 -65.3809 44.6289 -89.6973 74.8047 -89.6973 C 105.029 -89.6973 129.297 -65.3809 129.346 -35.2051 C 129.395 -5.0293 105.078 19.2871 74.8535 19.2871 Z M 107.373 -35.3027 C 107.373 -36.377 106.885 -37.3047 105.859 -38.3789 L 83.8379 -60.498 C 83.1055 -61.1816 82.1289 -61.5723 80.957 -61.5723 C 78.7598 -61.5723 77.0996 -59.9121 77.0996 -57.7148 C 77.0996 -56.4941 77.5879 -55.5664 78.3691 -54.7852 L 87.5 -45.7031 L 95.2148 -38.916 L 82.959 -39.3555 L 46.5332 -39.3555 C 44.1895 -39.3555 42.4805 -37.6465 42.4805 -35.2539 C 42.4805 -32.959 44.1406 -31.25 46.5332 -31.25 L 82.959 -31.25 L 95.2148 -31.6406 L 87.5 -24.8535 L 78.3691 -15.7715 C 77.5391 -15.0391 77.0996 -14.0625 77.0996 -12.8418 C 77.0996 -10.6934 78.7598 -8.93555 80.957 -8.93555 C 82.1289 -8.93555 83.1055 -9.375 83.8379 -10.1074 L 105.859 -32.1289 C 106.836 -33.1055 107.373 -34.082 107.373 -35.3027 Z"/>
  </g>
  <g id="Light-L" transform="matrix(1 0 0 1 1079.18 1556)">
   <path d="M 73.9258 27.4902 C 108.301 27.4902 136.621 -0.830078 136.621 -35.1562 C 136.621 -69.5312 108.252 -97.8516 73.9258 -97.8516 C 39.5508 -97.8516 11.2793 -69.5312 11.2793 -35.1562 C 11.2793 -0.830078 39.5996 27.4902 73.9258 27.4902 Z M 73.9258 20.6055 C 43.1152 20.6055 18.2129 -4.3457 18.2129 -35.1562 C 18.2129 -66.0156 43.0664 -90.918 73.9258 -90.918 C 104.736 -90.918 129.688 -66.0156 129.736 -35.1562 C 129.736 -4.3457 104.785 20.6055 73.9258 20.6055 Z M 106.445 -35.2539 C 106.445 -36.084 106.104 -36.8164 105.322 -37.5977 L 82.2754 -60.6445 C 81.7383 -61.2305 81.0059 -61.5723 80.0781 -61.5723 C 78.3203 -61.5723 77.0996 -60.2539 77.0996 -58.5938 C 77.0996 -57.6172 77.4902 -56.8848 78.125 -56.2988 L 88.9648 -45.4102 L 96.875 -38.0371 L 86.0352 -38.4277 L 44.7266 -38.4277 C 42.8711 -38.4277 41.5527 -37.1094 41.5527 -35.2051 C 41.5527 -33.3984 42.8223 -32.0801 44.7266 -32.0801 L 86.0352 -32.0801 L 96.875 -32.373 L 88.9648 -25.0488 L 78.125 -14.209 C 77.4414 -13.623 77.0996 -12.8906 77.0996 -11.9141 C 77.0996 -10.2539 78.3203 -8.93555 80.0781 -8.93555 C 81.0059 -8.93555 81.7383 -9.27734 82.2754 -9.86328 L 105.322 -32.8613 C 106.006 -33.5449 106.445 -34.3262 106.445 -35.2539 Z"/>
  </g>
  <g id="Thin-L" transform="matrix(1 0 0 1 783.693 1556)">
   <path d="M 72.7051 26.3184 C 106.494 26.3184 134.18 -1.36719 134.18 -35.1074 C 134.18 -68.8965 106.494 -96.582 72.7051 -96.582 C 38.9648 -96.582 11.2793 -68.8965 11.2793 -35.1074 C 11.2793 -1.36719 38.9648 26.3184 72.7051 26.3184 Z M 72.7051 22.3145 C 41.0156 22.3145 15.2832 -3.41797 15.2832 -35.1074 C 15.2832 -66.8457 41.0156 -92.5781 72.7051 -92.5781 C 104.395 -92.5781 130.176 -66.8457 130.176 -35.1074 C 130.176 -3.41797 104.443 22.3145 72.7051 22.3145 Z M 105.225 -35.2051 C 105.225 -35.6445 105.029 -36.1816 104.59 -36.5723 L 80.2734 -60.8887 C 79.8828 -61.2305 79.4922 -61.5234 78.8574 -61.5234 C 77.7832 -61.5234 77.0508 -60.7422 77.0508 -59.7168 C 77.0508 -59.082 77.3438 -58.6914 77.7832 -58.252 L 90.918 -45.0684 L 99.0723 -36.9141 L 90.1367 -37.207 L 42.334 -37.207 C 41.1621 -37.207 40.332 -36.4258 40.332 -35.1074 C 40.332 -34.0332 41.1133 -33.2031 42.334 -33.2031 L 90.1367 -33.2031 L 99.0234 -33.3984 L 90.918 -25.293 L 77.7832 -12.1582 C 77.3438 -11.7188 77.0508 -11.3281 77.0508 -10.6934 C 77.0508 -9.66797 77.7832 -8.88672 78.8574 -8.88672 C 79.4922 -8.88672 79.8828 -9.17969 80.2734 -9.52148 L 104.59 -33.7891 C 104.932 -34.1309 105.225 -34.6191 105.225 -35.2051 Z"/>
  </g>
  <g id="Ultralight-L" transform="matrix(1 0 0 1 487.616 1556)">
   <path d="M 72.1191 25.7324 C 105.566 25.7324 132.91 -1.61133 132.91 -35.1074 C 132.91 -68.5547 105.566 -95.8984 72.1191 -95.8984 C 38.623 -95.8984 11.2793 -68.5547 11.2793 -35.1074 C 11.2793 -1.61133 38.623 25.7324 72.1191 25.7324 Z M 72.1191 23.2422 C 39.9414 23.2422 13.7695 -2.97852 13.7695 -35.1074 C 13.7695 -67.2363 39.9414 -93.4082 72.1191 -93.4082 C 104.248 -93.4082 130.42 -67.2363 130.42 -35.1074 C 130.42 -2.97852 104.248 23.2422 72.1191 23.2422 Z M 104.59 -35.1562 C 104.59 -35.4004 104.443 -35.8398 104.248 -36.084 L 79.1992 -60.9863 C 78.9551 -61.2305 78.7109 -61.4746 78.2227 -61.4746 C 77.4902 -61.4746 77.0508 -60.9375 77.0508 -60.3027 C 77.0508 -59.8145 77.2461 -59.6191 77.6367 -59.2285 L 91.9434 -44.9219 L 100.195 -36.377 L 92.2363 -36.5723 L 41.0645 -36.5723 C 40.2832 -36.5723 39.6973 -36.0352 39.6973 -35.1074 C 39.6973 -34.375 40.1855 -33.7891 41.0645 -33.7891 L 92.2363 -33.7891 L 100.098 -33.8867 L 91.9434 -25.4395 L 77.6367 -11.1328 C 77.2949 -10.7422 77.0508 -10.498 77.0508 -10.0098 C 77.0508 -9.375 77.4902 -8.88672 78.2227 -8.88672 C 78.7109 -8.88672 78.9551 -9.08203 79.1992 -9.375 L 104.248 -34.2773 C 104.395 -34.4727 104.59 -34.7656 104.59 -35.1562 Z"/>
  </g>
  <g id="Black-M" transform="matrix(1 0 0 1 2870.97 1126)">
   <path d="M 62.4023 18.457 C 91.9922 18.457 116.113 -5.61523 116.113 -35.2051 C 116.113 -64.7949 91.9922 -88.8672 62.4023 -88.8672 C 32.8125 -88.8672 8.74023 -64.7949 8.74023 -35.2051 C 8.74023 -5.61523 32.8125 18.457 62.4023 18.457 Z M 62.4023 0.195312 C 42.8711 0.195312 27.002 -15.625 27.002 -35.2051 C 27.002 -54.7363 42.8711 -70.6055 62.4023 -70.6055 C 81.9824 -70.6055 97.8027 -54.7363 97.8027 -35.2051 C 97.8027 -15.625 81.9824 0.195312 62.4023 0.195312 Z M 88.2324 -35.1074 C 88.2324 -37.793 87.3047 -39.9414 85.5469 -41.5527 L 68.6035 -56.8848 C 66.9922 -58.3984 65.7227 -58.8867 63.7207 -58.8867 C 60.2539 -58.8867 57.8613 -56.3965 57.8613 -52.6855 C 57.8613 -50.9277 58.7402 -49.0723 60.0098 -48.0469 L 64.7949 -44.1406 L 68.6035 -42.041 L 60.1074 -42.8223 L 43.6523 -42.8223 C 39.5508 -42.8223 36.6699 -39.4043 36.6699 -35.1074 C 36.6699 -30.8594 39.5508 -27.4414 43.6523 -27.4414 L 60.1074 -27.4414 L 68.6035 -28.2227 L 65.0391 -26.2207 L 60.0098 -22.2168 C 58.6914 -21.2402 57.8613 -19.3848 57.8613 -17.5781 C 57.8613 -13.8672 60.2539 -11.377 63.7207 -11.377 C 65.7227 -11.377 66.9922 -11.8652 68.6035 -13.3789 L 85.5469 -28.7109 C 87.3047 -30.3223 88.2324 -32.4707 88.2324 -35.1074 Z"/>
  </g>
  <g id="Heavy-M" transform="matrix(1 0 0 1 2575.19 1126)">
   <path d="M 61.5234 17.5781 C 90.5273 17.5781 114.258 -6.15234 114.258 -35.2051 C 114.258 -64.2578 90.5273 -87.9883 61.4746 -87.9883 C 32.4707 -87.9883 8.74023 -64.2578 8.74023 -35.2051 C 8.74023 -6.15234 32.4707 17.5781 61.5234 17.5781 Z M 61.5234 1.66016 C 41.1133 1.66016 24.6582 -14.8438 24.6582 -35.2051 C 24.6582 -55.5664 41.1133 -72.0703 61.4746 -72.0703 C 81.8848 -72.0703 98.3398 -55.5664 98.3398 -35.2051 C 98.3398 -14.8438 81.8848 1.66016 61.5234 1.66016 Z M 87.1582 -35.1562 C 87.1582 -37.4512 86.3281 -39.2578 84.7656 -40.7715 L 67.9688 -56.3477 C 66.5527 -57.666 65.3809 -58.1543 63.623 -58.1543 C 60.498 -58.1543 58.3008 -55.8594 58.3008 -52.5391 C 58.3008 -50.9766 59.082 -49.3652 60.2051 -48.3887 L 65.332 -43.9941 L 69.6289 -41.2598 L 60.6934 -41.8945 L 42.0898 -41.8945 C 38.4766 -41.8945 35.8887 -38.9648 35.8887 -35.1562 C 35.8887 -31.3965 38.4766 -28.418 42.0898 -28.418 L 60.6934 -28.418 L 69.6289 -29.1016 L 65.5273 -26.416 L 60.2051 -21.9727 C 59.0332 -21.0449 58.3008 -19.4336 58.3008 -17.7734 C 58.3008 -14.502 60.498 -12.207 63.623 -12.207 C 65.3809 -12.207 66.5527 -12.6465 67.9688 -13.9648 L 84.7656 -29.5898 C 86.3281 -31.0547 87.1582 -32.8613 87.1582 -35.1562 Z"/>
  </g>
  <g id="Bold-M" transform="matrix(1 0 0 1 2279.5 1126)">
   <path d="M 60.498 16.5039 C 88.8672 16.5039 112.207 -6.78711 112.207 -35.2051 C 112.207 -63.623 88.8672 -86.9629 60.4492 -86.9629 C 32.0312 -86.9629 8.74023 -63.623 8.74023 -35.2051 C 8.74023 -6.78711 32.0801 16.5039 60.498 16.5039 Z M 60.498 3.22266 C 39.1602 3.22266 22.0703 -13.916 22.0703 -35.2051 C 22.0703 -56.4941 39.1602 -73.6816 60.4492 -73.6816 C 81.7383 -73.6816 98.9258 -56.4941 98.9258 -35.2051 C 98.9746 -13.916 81.7871 3.22266 60.498 3.22266 Z M 85.9863 -35.2051 C 85.9863 -37.0605 85.3027 -38.5254 83.9355 -39.8438 L 67.2363 -55.8105 C 66.0645 -56.8848 64.9902 -57.2754 63.4766 -57.2754 C 60.7422 -57.2754 58.8379 -55.2734 58.8379 -52.4414 C 58.8379 -51.0254 59.4727 -49.6582 60.4492 -48.7793 L 65.8691 -43.7988 L 70.752 -40.332 L 61.3281 -40.8691 L 40.3809 -40.8691 C 37.2559 -40.8691 35.0586 -38.4277 35.0586 -35.2051 C 35.0586 -32.0312 37.2559 -29.541 40.3809 -29.541 L 61.3281 -29.541 L 70.752 -30.127 L 66.0156 -26.6113 L 60.4492 -21.6309 C 59.4238 -20.8008 58.8379 -19.4336 58.8379 -18.0176 C 58.8379 -15.1367 60.7422 -13.1348 63.4766 -13.1348 C 64.9902 -13.1348 66.0645 -13.5742 67.2363 -14.6484 L 83.9355 -30.5664 C 85.2539 -31.8359 85.9863 -33.3496 85.9863 -35.2051 Z"/>
  </g>
  <g id="Semibold-M" transform="matrix(1 0 0 1 1983.5 1126)">
   <path d="M 59.7656 15.8203 C 87.7441 15.8203 110.791 -7.22656 110.791 -35.2051 C 110.791 -63.1836 87.6953 -86.2793 59.7656 -86.2793 C 31.7871 -86.2793 8.74023 -63.1836 8.74023 -35.2051 C 8.74023 -7.22656 31.7871 15.8203 59.7656 15.8203 Z M 59.7656 4.3457 C 37.8418 4.3457 20.2637 -13.2812 20.2637 -35.2051 C 20.2637 -57.1289 37.793 -74.8047 59.7656 -74.8047 C 81.6895 -74.8047 99.3164 -57.1289 99.3652 -35.2051 C 99.3652 -13.2812 81.6895 4.3457 59.7656 4.3457 Z M 85.1562 -35.2539 C 85.1562 -36.7676 84.5703 -38.0371 83.3496 -39.209 L 66.6992 -55.3711 C 65.7715 -56.2988 64.7461 -56.6895 63.4277 -56.6895 C 60.9375 -56.6895 59.1797 -54.8828 59.1797 -52.3438 C 59.1797 -51.0254 59.7168 -49.8535 60.5957 -49.0723 L 66.3086 -43.7012 L 71.4844 -39.6973 L 61.7676 -40.1855 L 39.1602 -40.1855 C 36.4258 -40.1855 34.4727 -38.0371 34.4727 -35.2539 C 34.4727 -32.4219 36.4258 -30.3223 39.1602 -30.3223 L 61.7676 -30.3223 L 71.5332 -30.8105 L 66.3574 -26.8066 L 60.5957 -21.4355 C 59.668 -20.6543 59.1797 -19.4824 59.1797 -18.1641 C 59.1797 -15.625 60.9375 -13.7695 63.4277 -13.7695 C 64.7461 -13.7695 65.7715 -14.1602 66.6992 -15.0879 L 83.3496 -31.25 C 84.5215 -32.373 85.1562 -33.6426 85.1562 -35.2539 Z"/>
  </g>
  <g id="Medium-M" transform="matrix(1 0 0 1 1687.3 1126)">
   <path d="M 59.2285 15.2832 C 86.9141 15.2832 109.766 -7.56836 109.766 -35.2051 C 109.766 -62.8906 86.8652 -85.7422 59.1797 -85.7422 C 31.543 -85.7422 8.74023 -62.8906 8.74023 -35.2051 C 8.74023 -7.56836 31.5918 15.2832 59.2285 15.2832 Z M 59.2285 5.17578 C 36.8164 5.17578 18.8965 -12.8418 18.8965 -35.2051 C 18.8965 -57.6172 36.8164 -75.6348 59.1797 -75.6348 C 81.5918 -75.6348 99.6094 -57.6172 99.6582 -35.2051 C 99.707 -12.8418 81.6406 5.17578 59.2285 5.17578 Z M 84.5215 -35.2539 C 84.5215 -36.5723 84.0332 -37.6465 82.9102 -38.7207 L 66.3086 -55.0781 C 65.5273 -55.9082 64.5508 -56.25 63.3789 -56.25 C 61.084 -56.25 59.4238 -54.541 59.4238 -52.2461 C 59.4238 -51.0742 59.9609 -50 60.6934 -49.2676 L 66.6016 -43.6035 L 72.0703 -39.209 L 62.1094 -39.6484 L 38.2812 -39.6484 C 35.791 -39.6484 34.0332 -37.793 34.0332 -35.2539 C 34.0332 -32.7637 35.791 -30.9082 38.2812 -30.9082 L 62.1094 -30.9082 L 72.1191 -31.3477 L 66.6504 -26.9043 L 60.6934 -21.2402 C 59.9121 -20.5566 59.4238 -19.4824 59.4238 -18.2617 C 59.4238 -15.9668 61.084 -14.2578 63.3789 -14.2578 C 64.5508 -14.2578 65.5273 -14.6484 66.3086 -15.4297 L 82.9102 -31.7383 C 83.9844 -32.8125 84.5215 -33.8867 84.5215 -35.2539 Z"/>
  </g>
  <g id="Regular-M" transform="matrix(1 0 0 1 1391.3 1126)">
   <path d="M 58.5449 14.5508 C 85.791 14.5508 108.35 -8.00781 108.35 -35.2539 C 108.35 -62.4512 85.7422 -85.0586 58.4961 -85.0586 C 31.2988 -85.0586 8.74023 -62.4512 8.74023 -35.2539 C 8.74023 -8.00781 31.3477 14.5508 58.5449 14.5508 Z M 58.5449 6.25 C 35.498 6.25 17.0898 -12.207 17.0898 -35.2539 C 17.0898 -58.252 35.4492 -76.7578 58.4961 -76.7578 C 81.543 -76.7578 100 -58.252 100.049 -35.2539 C 100.098 -12.207 81.5918 6.25 58.5449 6.25 Z M 83.7402 -35.3027 C 83.7402 -36.3281 83.3008 -37.1582 82.3242 -38.1348 L 65.8203 -54.6875 C 65.1855 -55.3223 64.3066 -55.6641 63.2812 -55.6641 C 61.2793 -55.6641 59.7656 -54.1504 59.7656 -52.1484 C 59.7656 -51.0742 60.2051 -50.1953 60.8398 -49.5605 L 66.9922 -43.5059 L 72.8516 -38.5742 L 62.5488 -38.9648 L 37.0605 -38.9648 C 34.9609 -38.9648 33.4473 -37.4023 33.4473 -35.3027 C 33.4473 -33.2031 34.9609 -31.6406 37.0605 -31.6406 L 62.5488 -31.6406 L 72.9004 -32.0312 L 66.9922 -27.0508 L 60.8398 -21.0449 C 60.1562 -20.3613 59.7656 -19.4824 59.7656 -18.4082 C 59.7656 -16.4551 61.2793 -14.8438 63.2812 -14.8438 C 64.3066 -14.8438 65.1855 -15.2344 65.8203 -15.8691 L 82.3242 -32.4219 C 83.252 -33.3496 83.7402 -34.1797 83.7402 -35.3027 Z"/>
  </g>
  <g id="Light-M" transform="matrix(1 0 0 1 1095.42 1126)">
   <path d="M 57.7148 13.7695 C 84.5215 13.7695 106.689 -8.39844 106.689 -35.2051 C 106.689 -62.0117 84.5215 -84.1797 57.666 -84.1797 C 30.8594 -84.1797 8.74023 -62.0117 8.74023 -35.2051 C 8.74023 -8.39844 30.9082 13.7695 57.7148 13.7695 Z M 57.7148 7.4707 C 34.082 7.4707 15.0879 -11.5723 15.0879 -35.2051 C 15.0879 -58.8379 34.082 -77.832 57.666 -77.832 C 81.2988 -77.832 100.342 -58.8379 100.391 -35.2051 C 100.391 -11.5723 81.3477 7.4707 57.7148 7.4707 Z M 82.9102 -35.2539 C 82.9102 -36.0352 82.5684 -36.6699 81.8359 -37.4023 L 64.4531 -54.834 C 63.9648 -55.3711 63.2812 -55.6641 62.4512 -55.6641 C 60.8887 -55.6641 59.7656 -54.4434 59.7656 -52.9297 C 59.7656 -52.0996 60.1074 -51.416 60.6445 -50.8789 L 68.3105 -43.2617 L 74.3164 -37.793 L 65.332 -38.1348 L 35.4492 -38.1348 C 33.7891 -38.1348 32.6172 -36.9629 32.6172 -35.2539 C 32.6172 -33.5938 33.7891 -32.4219 35.4492 -32.4219 L 65.332 -32.4219 L 74.3164 -32.7148 L 68.3105 -27.2461 L 60.6445 -19.6289 C 60.0586 -19.0918 59.7656 -18.457 59.7656 -17.5781 C 59.7656 -16.0645 60.8887 -14.8438 62.4512 -14.8438 C 63.2812 -14.8438 63.9648 -15.1855 64.4531 -15.6738 L 81.8359 -33.0566 C 82.5195 -33.7402 82.9102 -34.4238 82.9102 -35.2539 Z"/>
  </g>
  <g id="Thin-M" transform="matrix(1 0 0 1 799.806 1126)">
   <path d="M 56.6406 12.7441 C 82.9102 12.7441 104.492 -8.83789 104.492 -35.1562 C 104.492 -61.4746 82.9102 -83.0566 56.5918 -83.0566 C 30.3223 -83.0566 8.74023 -61.4746 8.74023 -35.1562 C 8.74023 -8.83789 30.3223 12.7441 56.6406 12.7441 Z M 56.6406 8.98438 C 32.2266 8.98438 12.4512 -10.791 12.4512 -35.1562 C 12.4512 -59.5215 32.2266 -79.2969 56.5918 -79.2969 C 81.0059 -79.2969 100.781 -59.5215 100.781 -35.1562 C 100.781 -10.791 81.0059 8.98438 56.6406 8.98438 Z M 81.7871 -35.2051 C 81.7871 -35.6445 81.5918 -36.084 81.2012 -36.5234 L 62.6465 -55.0293 C 62.3047 -55.3711 61.9141 -55.6152 61.377 -55.6152 C 60.4004 -55.6152 59.7168 -54.8828 59.7168 -53.9551 C 59.7168 -53.418 59.9609 -53.0273 60.3516 -52.6367 L 70.0684 -42.9688 L 76.3184 -36.8164 L 68.9453 -37.0117 L 33.3008 -37.0117 C 32.2754 -37.0117 31.4941 -36.3281 31.4941 -35.1562 C 31.4941 -34.1797 32.2266 -33.3984 33.3008 -33.3984 L 68.9453 -33.3984 L 76.2695 -33.5938 L 70.0684 -27.4902 L 60.3516 -17.8223 C 59.9609 -17.4316 59.7168 -17.041 59.7168 -16.4551 C 59.7168 -15.5762 60.4004 -14.8438 61.377 -14.8438 C 61.9141 -14.8438 62.3047 -15.0391 62.6465 -15.3809 L 81.2012 -33.9355 C 81.543 -34.2773 81.7871 -34.668 81.7871 -35.2051 Z"/>
  </g>
  <g id="Ultralight-M" transform="matrix(1 0 0 1 503.656 1126)">
   <path d="M 56.0547 12.207 C 82.0801 12.207 103.369 -9.08203 103.369 -35.1562 C 103.369 -61.1816 82.0801 -82.4707 56.0547 -82.4707 C 30.0293 -82.4707 8.74023 -61.1816 8.74023 -35.1562 C 8.74023 -9.08203 30.0293 12.207 56.0547 12.207 Z M 56.0547 9.81445 C 31.2988 9.81445 11.1328 -10.3516 11.1328 -35.1562 C 11.1328 -59.9121 31.2988 -80.0781 56.0547 -80.0781 C 80.8594 -80.0781 100.977 -59.9121 100.977 -35.1562 C 100.977 -10.3516 80.8594 9.81445 56.0547 9.81445 Z M 81.25 -35.2051 C 81.25 -35.4492 81.1035 -35.791 80.9082 -36.0352 L 61.7188 -55.127 C 61.4746 -55.3711 61.2305 -55.5664 60.791 -55.5664 C 60.1562 -55.5664 59.7168 -55.0781 59.7168 -54.4922 C 59.7168 -54.0527 59.9121 -53.8574 60.2051 -53.5156 L 70.9473 -42.7734 L 77.2949 -36.2793 L 70.8496 -36.4746 L 32.2266 -36.4746 C 31.4941 -36.4746 30.957 -35.9863 30.957 -35.1562 C 30.957 -34.4727 31.4453 -33.9355 32.2266 -33.9355 L 70.8496 -33.9355 L 77.2461 -34.0332 L 70.9473 -27.5879 L 60.2051 -16.8457 C 59.9121 -16.5527 59.7168 -16.3086 59.7168 -15.918 C 59.7168 -15.2832 60.1562 -14.7949 60.791 -14.7949 C 61.2305 -14.7949 61.4746 -14.9902 61.7188 -15.2344 L 80.9082 -34.375 C 81.0547 -34.5215 81.25 -34.8145 81.25 -35.2051 Z"/>
  </g>
  <g id="Black-S" transform="matrix(1 0 0 1 2884.57 696)">
   <path d="M 48.8281 6.78711 C 71.9727 6.78711 90.8203 -12.0605 90.8203 -35.2051 C 90.8203 -58.3496 71.9727 -77.1973 48.8281 -77.1973 C 25.6836 -77.1973 6.83594 -58.3496 6.83594 -35.2051 C 6.83594 -12.0605 25.6836 6.78711 48.8281 6.78711 Z M 48.8281 -7.37305 C 33.4473 -7.37305 20.9961 -19.8242 20.9961 -35.2051 C 20.9961 -50.5859 33.4473 -63.0371 48.8281 -63.0371 C 64.209 -63.0371 76.6602 -50.5859 76.6602 -35.2051 C 76.6602 -19.8242 64.209 -7.37305 48.8281 -7.37305 Z M 69.043 -35.1562 C 69.043 -37.207 68.3105 -38.8672 66.9434 -40.1367 L 53.7109 -52.1484 C 52.4414 -53.3203 51.4648 -53.7109 49.9023 -53.7109 C 47.2168 -53.7109 45.3613 -51.7578 45.3613 -48.877 C 45.3613 -47.5098 46.0449 -46.0938 47.0215 -45.2637 L 50.7812 -42.1875 L 53.8086 -40.5273 L 47.0703 -41.1133 L 34.082 -41.1133 C 30.9082 -41.1133 28.6621 -38.4766 28.6621 -35.1562 C 28.6621 -31.8359 30.9082 -29.1992 34.082 -29.1992 L 47.0703 -29.1992 L 53.8086 -29.7852 L 50.9766 -28.1738 L 47.0215 -25.0488 C 45.9961 -24.2676 45.3613 -22.8516 45.3613 -21.4355 C 45.3613 -18.5547 47.2168 -16.6016 49.9023 -16.6016 C 51.4648 -16.6016 52.4414 -16.9922 53.7109 -18.1641 L 66.9434 -30.1758 C 68.3105 -31.4453 69.043 -33.1055 69.043 -35.1562 Z"/>
  </g>
  <g id="Heavy-S" transform="matrix(1 0 0 1 2588.47 696)">
   <path d="M 48.2422 6.15234 C 70.9961 6.15234 89.5996 -12.4512 89.5996 -35.2051 C 89.5996 -57.959 70.9961 -76.6113 48.1934 -76.6113 C 25.4395 -76.6113 6.83594 -57.959 6.83594 -35.2051 C 6.83594 -12.4512 25.4395 6.15234 48.2422 6.15234 Z M 48.2422 -6.39648 C 32.2754 -6.39648 19.4336 -19.2871 19.4336 -35.2051 C 19.4336 -51.1719 32.2754 -64.0137 48.1934 -64.0137 C 64.1602 -64.0137 77.002 -51.1719 77.0508 -35.2051 C 77.0508 -19.2871 64.1602 -6.39648 48.2422 -6.39648 Z M 68.3105 -35.2051 C 68.3105 -36.9629 67.6758 -38.4277 66.4062 -39.5996 L 53.3691 -51.7578 C 52.2461 -52.7832 51.3184 -53.125 49.9023 -53.125 C 47.4609 -53.125 45.7031 -51.3184 45.7031 -48.6816 C 45.7031 -47.4121 46.3379 -46.1426 47.2168 -45.4102 L 51.0254 -42.0898 L 54.3945 -39.9902 L 47.2168 -40.5273 L 33.0566 -40.5273 C 30.2246 -40.5273 28.1738 -38.1836 28.1738 -35.2051 C 28.1738 -32.2266 30.2246 -29.8828 33.0566 -29.8828 L 47.2168 -29.8828 L 54.3945 -30.4199 L 51.1719 -28.3203 L 47.2168 -25 C 46.2891 -24.2676 45.7031 -22.998 45.7031 -21.6797 C 45.7031 -19.043 47.4609 -17.2363 49.9023 -17.2363 C 51.3184 -17.2363 52.2461 -17.627 53.3691 -18.6523 L 66.4062 -30.7617 C 67.6758 -31.9336 68.3105 -33.3984 68.3105 -35.2051 Z"/>
  </g>
  <g id="Bold-S" transform="matrix(1 0 0 1 2292.44 696)">
   <path d="M 47.5586 5.46875 C 69.873 5.46875 88.2324 -12.8906 88.2324 -35.2051 C 88.2324 -57.5684 69.873 -75.9277 47.5098 -75.9277 C 25.1953 -75.9277 6.83594 -57.5684 6.83594 -35.2051 C 6.83594 -12.8906 25.1953 5.46875 47.5586 5.46875 Z M 47.5586 -5.32227 C 30.957 -5.32227 17.6758 -18.6523 17.6758 -35.2051 C 17.6758 -51.8066 30.957 -65.1367 47.5098 -65.1367 C 64.1113 -65.1367 77.4414 -51.8066 77.4414 -35.2051 C 77.4414 -18.6523 64.1113 -5.32227 47.5586 -5.32227 Z M 67.5293 -35.2051 C 67.5293 -36.7188 66.9434 -37.8906 65.8203 -38.9648 L 52.9785 -51.2695 C 52.0508 -52.1484 51.1719 -52.4902 49.9512 -52.4902 C 47.7051 -52.4902 46.0938 -50.8301 46.0938 -48.4863 C 46.0938 -47.3633 46.6309 -46.2402 47.4121 -45.5566 L 51.3184 -41.9922 L 55.0781 -39.3555 L 47.3633 -39.8438 L 31.9336 -39.8438 C 29.4434 -39.8438 27.6367 -37.8418 27.6367 -35.2051 C 27.6367 -32.6172 29.4434 -30.6152 31.9336 -30.6152 L 47.3633 -30.6152 L 55.0781 -31.1035 L 51.416 -28.4668 L 47.4121 -24.9023 C 46.582 -24.2188 46.0938 -23.1445 46.0938 -21.9727 C 46.0938 -19.6289 47.7051 -17.9199 49.9512 -17.9199 C 51.1719 -17.9199 52.0508 -18.3105 52.9785 -19.1895 L 65.8203 -31.4453 C 66.9434 -32.5195 67.5293 -33.6914 67.5293 -35.2051 Z"/>
  </g>
  <g id="Semibold-S" transform="matrix(1 0 0 1 1996.2 696)">
   <path d="M 47.0703 4.98047 C 69.0918 4.98047 87.3047 -13.1836 87.3047 -35.2539 C 87.3047 -57.2754 69.0918 -75.4883 47.0215 -75.4883 C 25 -75.4883 6.83594 -57.2754 6.83594 -35.2539 C 6.83594 -13.1836 25.0488 4.98047 47.0703 4.98047 Z M 47.0703 -4.58984 C 30.0781 -4.58984 16.4551 -18.2129 16.4551 -35.2539 C 16.4551 -52.2461 30.0293 -65.8691 47.0215 -65.8691 C 64.0625 -65.8691 77.6855 -52.2461 77.7344 -35.2539 C 77.7344 -18.2129 64.0625 -4.58984 47.0703 -4.58984 Z M 66.9434 -35.2539 C 66.9434 -36.5234 66.4551 -37.5488 65.4297 -38.5742 L 52.6855 -50.9766 C 51.9043 -51.709 51.0742 -52.0508 49.9512 -52.0508 C 47.8516 -52.0508 46.3379 -50.4883 46.3379 -48.3398 C 46.3379 -47.2656 46.8262 -46.2891 47.5098 -45.6543 L 51.4648 -41.9434 L 55.5176 -38.9648 L 47.4609 -39.3555 L 31.2012 -39.3555 C 28.9062 -39.3555 27.2461 -37.5977 27.2461 -35.2539 C 27.2461 -32.9102 28.9062 -31.1523 31.2012 -31.1523 L 47.4609 -31.1523 L 55.5664 -31.543 L 51.5625 -28.5645 L 47.5098 -24.8535 C 46.7773 -24.2188 46.3379 -23.2422 46.3379 -22.168 C 46.3379 -20.0195 47.8516 -18.4082 49.9512 -18.4082 C 51.0742 -18.4082 51.9043 -18.7988 52.6855 -19.5312 L 65.4297 -31.8848 C 66.4551 -32.9102 66.9434 -33.9355 66.9434 -35.2539 Z"/>
  </g>
  <g id="Medium-S" transform="matrix(1 0 0 1 1699.83 696)">
   <path d="M 46.7285 4.63867 C 68.5547 4.63867 86.6211 -13.4277 86.6211 -35.2539 C 86.6211 -57.0312 68.5059 -75.1465 46.6797 -75.1465 C 24.8535 -75.1465 6.83594 -57.0312 6.83594 -35.2539 C 6.83594 -13.4277 24.9023 4.63867 46.7285 4.63867 Z M 46.7285 -4.00391 C 29.3945 -4.00391 15.5273 -17.9199 15.5273 -35.2539 C 15.5273 -52.5879 29.3457 -66.4551 46.6797 -66.4551 C 64.0137 -66.4551 77.8809 -52.5879 77.9297 -35.2539 C 77.9785 -17.9199 64.0625 -4.00391 46.7285 -4.00391 Z M 66.5527 -35.2539 C 66.5527 -36.4258 66.1133 -37.3047 65.1367 -38.2324 L 52.4902 -50.7324 C 51.8066 -51.416 50.9766 -51.709 49.9512 -51.709 C 47.998 -51.709 46.582 -50.2441 46.582 -48.2422 C 46.582 -47.2168 46.9727 -46.3379 47.6562 -45.7031 L 51.6113 -41.8945 L 55.8594 -38.623 L 47.5586 -39.0137 L 30.6152 -39.0137 C 28.4668 -39.0137 26.9531 -37.4023 26.9531 -35.2539 C 26.9531 -33.1543 28.4668 -31.543 30.6152 -31.543 L 47.5586 -31.543 L 55.9082 -31.9336 L 51.6602 -28.6133 L 47.6562 -24.8535 C 46.9238 -24.2188 46.582 -23.3398 46.582 -22.2656 C 46.582 -20.3125 47.998 -18.7988 49.9512 -18.7988 C 50.9766 -18.7988 51.8066 -19.1406 52.4902 -19.8242 L 65.1367 -32.2754 C 66.0645 -33.1543 66.5527 -34.082 66.5527 -35.2539 Z"/>
  </g>
  <g id="Regular-S" transform="matrix(1 0 0 1 1403.58 696)">
   <path d="M 46.2402 4.15039 C 67.7734 4.15039 85.6934 -13.7207 85.6934 -35.2539 C 85.6934 -56.7871 67.7246 -74.6582 46.1914 -74.6582 C 24.707 -74.6582 6.83594 -56.7871 6.83594 -35.2539 C 6.83594 -13.7207 24.7559 4.15039 46.2402 4.15039 Z M 46.2402 -3.27148 C 28.5156 -3.27148 14.3555 -17.4805 14.3555 -35.2539 C 14.3555 -53.0273 28.4668 -67.2363 46.1914 -67.2363 C 63.9648 -67.2363 78.1738 -53.0273 78.2227 -35.2539 C 78.2715 -17.4805 64.0137 -3.27148 46.2402 -3.27148 Z M 65.9668 -35.3027 C 65.9668 -36.2305 65.625 -36.9629 64.6973 -37.8418 L 52.2461 -50.3906 C 51.6602 -50.9766 50.8789 -51.2695 49.9512 -51.2695 C 48.1934 -51.2695 46.8262 -49.9023 46.8262 -48.0957 C 46.8262 -47.168 47.2168 -46.3867 47.7539 -45.8008 L 51.8066 -41.7969 L 56.3477 -38.2324 L 47.6562 -38.5254 L 29.834 -38.5254 C 27.9297 -38.5254 26.5625 -37.1582 26.5625 -35.3027 C 26.5625 -33.3984 27.9297 -32.0312 29.834 -32.0312 L 47.6562 -32.0312 L 56.3965 -32.373 L 51.8066 -28.7598 L 47.7539 -24.8047 C 47.168 -24.2188 46.8262 -23.4375 46.8262 -22.4609 C 46.8262 -20.7031 48.1934 -19.2871 49.9512 -19.2871 C 50.8789 -19.2871 51.6602 -19.6289 52.2461 -20.166 L 64.6973 -32.7148 C 65.5762 -33.5449 65.9668 -34.3262 65.9668 -35.3027 Z"/>
  </g>
  <g id="Light-S" transform="matrix(1 0 0 1 1107.6 696)">
   <path d="M 45.5078 3.4668 C 66.6992 3.4668 84.2285 -14.0625 84.2285 -35.2051 C 84.2285 -56.3965 66.6504 -73.9258 45.5078 -73.9258 C 24.3164 -73.9258 6.83594 -56.3965 6.83594 -35.2051 C 6.83594 -14.0625 24.3652 3.4668 45.5078 3.4668 Z M 45.5078 -2.24609 C 27.2461 -2.24609 12.5977 -16.9434 12.5977 -35.2051 C 12.5977 -53.5156 27.1973 -68.2129 45.5078 -68.2129 C 63.7695 -68.2129 78.4668 -53.5156 78.5156 -35.2051 C 78.5156 -16.9434 63.8184 -2.24609 45.5078 -2.24609 Z M 65.2344 -35.2539 C 65.2344 -35.9863 64.9414 -36.5234 64.3066 -37.207 L 51.0254 -50.5371 C 50.5859 -50.9766 49.9512 -51.2207 49.2188 -51.2207 C 47.8516 -51.2207 46.8262 -50.1953 46.8262 -48.8281 C 46.8262 -48.0469 47.1191 -47.4609 47.5586 -46.9727 L 52.9785 -41.6016 L 57.666 -37.5488 L 50.0977 -37.793 L 28.3691 -37.793 C 26.9043 -37.793 25.8301 -36.7676 25.8301 -35.2539 C 25.8301 -33.7891 26.9043 -32.7148 28.3691 -32.7148 L 50.0977 -32.7148 L 57.666 -32.959 L 52.9785 -28.9062 L 47.5586 -23.5352 C 47.0703 -23.0957 46.8262 -22.4609 46.8262 -21.7285 C 46.8262 -20.3613 47.8516 -19.2871 49.2188 -19.2871 C 49.9512 -19.2871 50.5859 -19.5312 51.0254 -19.9707 L 64.3066 -33.3008 C 64.8926 -33.8867 65.2344 -34.5215 65.2344 -35.2539 Z"/>
  </g>
  <g id="Thin-S" transform="matrix(1 0 0 1 811.867 696)">
   <path d="M 44.5801 2.53906 C 65.2832 2.53906 82.2754 -14.4531 82.2754 -35.2051 C 82.2754 -55.9082 65.2344 -72.9004 44.5312 -72.9004 C 23.8281 -72.9004 6.83594 -55.9082 6.83594 -35.2051 C 6.83594 -14.4531 23.877 2.53906 44.5801 2.53906 Z M 44.5801 -0.878906 C 25.5859 -0.878906 10.2539 -16.2109 10.2539 -35.2051 C 10.2539 -54.1504 25.5859 -69.4824 44.5312 -69.4824 C 63.5254 -69.4824 78.8574 -54.1504 78.8574 -35.2051 C 78.8574 -16.2109 63.5254 -0.878906 44.5801 -0.878906 Z M 64.3066 -35.2539 C 64.3066 -35.6445 64.1113 -36.0352 63.7207 -36.4258 L 49.4141 -50.7324 C 49.1211 -51.0254 48.7793 -51.2207 48.291 -51.2207 C 47.4121 -51.2207 46.7773 -50.5371 46.7773 -49.707 C 46.7773 -49.2188 47.0215 -48.877 47.3145 -48.5352 L 54.541 -41.3574 L 59.375 -36.6699 L 53.3203 -36.8652 L 26.5137 -36.8652 C 25.5859 -36.8652 24.9023 -36.1816 24.9023 -35.2051 C 24.9023 -34.2773 25.5371 -33.5938 26.5137 -33.5938 L 53.3203 -33.5938 L 59.375 -33.7891 L 54.541 -29.1016 L 47.3145 -21.9238 C 46.9727 -21.582 46.7773 -21.2402 46.7773 -20.752 C 46.7773 -19.9219 47.4121 -19.2383 48.291 -19.2383 C 48.7793 -19.2383 49.1211 -19.4336 49.4141 -19.7266 L 63.7207 -34.0332 C 64.0625 -34.375 64.3066 -34.7656 64.3066 -35.2539 Z"/>
  </g>
  <g id="Ultralight-S" transform="matrix(1 0 0 1 515.644 696)">
   <path d="M 44.043 2.05078 C 64.502 2.05078 81.2988 -14.6973 81.2988 -35.1562 C 81.2988 -55.6152 64.502 -72.3633 44.043 -72.3633 C 23.584 -72.3633 6.83594 -55.6152 6.83594 -35.1562 C 6.83594 -14.6973 23.584 2.05078 44.043 2.05078 Z M 44.043 -0.146484 C 24.7559 -0.146484 9.08203 -15.8691 9.08203 -35.1562 C 9.08203 -54.4434 24.7559 -70.166 44.043 -70.166 C 63.3789 -70.166 79.0527 -54.4434 79.0527 -35.1562 C 79.0527 -15.8691 63.3789 -0.146484 44.043 -0.146484 Z M 63.7695 -35.2051 C 63.7695 -35.4492 63.6719 -35.7422 63.4277 -35.9863 L 48.584 -50.8301 C 48.3887 -51.0254 48.1445 -51.1719 47.7539 -51.1719 C 47.168 -51.1719 46.7773 -50.7324 46.7773 -50.1953 C 46.7773 -49.8047 46.9238 -49.6094 47.2168 -49.3164 L 55.3223 -41.2109 L 60.3027 -36.1816 L 54.9805 -36.3281 L 25.5371 -36.3281 C 24.8535 -36.3281 24.3652 -35.8887 24.3652 -35.1562 C 24.3652 -34.5703 24.8047 -34.082 25.5371 -34.082 L 54.9805 -34.082 L 60.2539 -34.1797 L 55.3223 -29.1992 L 47.2168 -21.0938 C 46.9238 -20.8496 46.7773 -20.6055 46.7773 -20.2148 C 46.7773 -19.6777 47.168 -19.2383 47.7539 -19.2383 C 48.1445 -19.2383 48.3887 -19.3848 48.584 -19.6289 L 63.4277 -34.4238 C 63.623 -34.6191 63.7695 -34.8633 63.7695 -35.2051 Z"/>
  </g>
 </g>
</svg>
