<?xml version="1.0" encoding="UTF-8"?>
<!--Generator: Apple Native CoreSVG 123-->
<!DOCTYPE svg
PUBLIC "-//W3C//DTD SVG 1.1//EN"
       "http://www.w3.org/Graphics/SVG/1.1/DTD/svg11.dtd">
<svg version="1.1" xmlns="http://www.w3.org/2000/svg" xmlns:xlink="http://www.w3.org/1999/xlink" width="3300" height="2200">
 <!--glyph: "uni100689.medium", point size: 100.000000, font version: "Version 15.0d7e11", template writer version: "5"-->
 <g id="Notes">
  <rect height="2200" id="artboard" style="fill:white;opacity:1" width="3300" x="0" y="0"/>
  <line id="" style="fill:none;stroke:black;opacity:1;stroke-width:0.5;" x1="263" x2="3036" y1="292" y2="292"/>
  <text style="stroke:none;fill:black;font-family:-apple-system,&quot;SF Pro Display&quot;,&quot;SF Pro Text&quot;,Helvetica,sans-serif;font-weight:bold;" transform="matrix(1 0 0 1 263 322)">Weight/Scale Variations</text>
  <text style="stroke:none;fill:black;font-family:-apple-system,&quot;SF Pro Display&quot;,&quot;SF Pro Text&quot;,Helvetica,sans-serif;text-anchor:middle;" transform="matrix(1 0 0 1 559.711 322)">Ultralight</text>
  <text style="stroke:none;fill:black;font-family:-apple-system,&quot;SF Pro Display&quot;,&quot;SF Pro Text&quot;,Helvetica,sans-serif;text-anchor:middle;" transform="matrix(1 0 0 1 856.422 322)">Thin</text>
  <text style="stroke:none;fill:black;font-family:-apple-system,&quot;SF Pro Display&quot;,&quot;SF Pro Text&quot;,Helvetica,sans-serif;text-anchor:middle;" transform="matrix(1 0 0 1 1153.13 322)">Light</text>
  <text style="stroke:none;fill:black;font-family:-apple-system,&quot;SF Pro Display&quot;,&quot;SF Pro Text&quot;,Helvetica,sans-serif;text-anchor:middle;" transform="matrix(1 0 0 1 1449.84 322)">Regular</text>
  <text style="stroke:none;fill:black;font-family:-apple-system,&quot;SF Pro Display&quot;,&quot;SF Pro Text&quot;,Helvetica,sans-serif;text-anchor:middle;" transform="matrix(1 0 0 1 1746.56 322)">Medium</text>
  <text style="stroke:none;fill:black;font-family:-apple-system,&quot;SF Pro Display&quot;,&quot;SF Pro Text&quot;,Helvetica,sans-serif;text-anchor:middle;" transform="matrix(1 0 0 1 2043.27 322)">Semibold</text>
  <text style="stroke:none;fill:black;font-family:-apple-system,&quot;SF Pro Display&quot;,&quot;SF Pro Text&quot;,Helvetica,sans-serif;text-anchor:middle;" transform="matrix(1 0 0 1 2339.98 322)">Bold</text>
  <text style="stroke:none;fill:black;font-family:-apple-system,&quot;SF Pro Display&quot;,&quot;SF Pro Text&quot;,Helvetica,sans-serif;text-anchor:middle;" transform="matrix(1 0 0 1 2636.69 322)">Heavy</text>
  <text style="stroke:none;fill:black;font-family:-apple-system,&quot;SF Pro Display&quot;,&quot;SF Pro Text&quot;,Helvetica,sans-serif;text-anchor:middle;" transform="matrix(1 0 0 1 2933.4 322)">Black</text>
  <line id="" style="fill:none;stroke:black;opacity:1;stroke-width:0.5;" x1="263" x2="3036" y1="1903" y2="1903"/>
  <g id="" transform="matrix(1 0 0 1 263 1933)">
   <path d="M 9.24805 0.830078 C 13.5547 0.830078 17.1387 -2.74414 17.1387 -7.05078 C 17.1387 -11.3574 13.5449 -14.9316 9.23828 -14.9316 C 4.94141 -14.9316 1.36719 -11.3574 1.36719 -7.05078 C 1.36719 -2.74414 4.95117 0.830078 9.24805 0.830078 Z M 9.24805 -0.654297 C 5.70312 -0.654297 2.87109 -3.49609 2.87109 -7.05078 C 2.87109 -10.6055 5.69336 -13.4473 9.23828 -13.4473 C 12.793 -13.4473 15.6348 -10.6055 15.6445 -7.05078 C 15.6543 -3.49609 12.8027 -0.654297 9.24805 -0.654297 Z M 9.22852 -3.42773 C 9.69727 -3.42773 9.9707 -3.74023 9.9707 -4.25781 L 9.9707 -6.31836 L 12.1973 -6.31836 C 12.6953 -6.31836 13.0371 -6.57227 13.0371 -7.04102 C 13.0371 -7.51953 12.7148 -7.7832 12.1973 -7.7832 L 9.9707 -7.7832 L 9.9707 -10.0098 C 9.9707 -10.5273 9.69727 -10.8496 9.22852 -10.8496 C 8.75977 -10.8496 8.50586 -10.5078 8.50586 -10.0098 L 8.50586 -7.7832 L 6.29883 -7.7832 C 5.78125 -7.7832 5.44922 -7.51953 5.44922 -7.04102 C 5.44922 -6.57227 5.80078 -6.31836 6.29883 -6.31836 L 8.50586 -6.31836 L 8.50586 -4.25781 C 8.50586 -3.75977 8.75977 -3.42773 9.22852 -3.42773 Z"/>
  </g>
  <g id="" transform="matrix(1 0 0 1 281.506 1933)">
   <path d="M 11.709 2.91016 C 17.1582 2.91016 21.6699 -1.60156 21.6699 -7.05078 C 21.6699 -12.4902 17.1484 -17.0117 11.6992 -17.0117 C 6.25977 -17.0117 1.74805 -12.4902 1.74805 -7.05078 C 1.74805 -1.60156 6.26953 2.91016 11.709 2.91016 Z M 11.709 1.25 C 7.09961 1.25 3.41797 -2.44141 3.41797 -7.05078 C 3.41797 -11.6504 7.08984 -15.3516 11.6992 -15.3516 C 16.3086 -15.3516 20 -11.6504 20.0098 -7.05078 C 20.0195 -2.44141 16.3184 1.25 11.709 1.25 Z M 11.6895 -2.41211 C 12.207 -2.41211 12.5195 -2.77344 12.5195 -3.33984 L 12.5195 -6.23047 L 15.5762 -6.23047 C 16.123 -6.23047 16.5039 -6.51367 16.5039 -7.03125 C 16.5039 -7.55859 16.1426 -7.86133 15.5762 -7.86133 L 12.5195 -7.86133 L 12.5195 -10.9277 C 12.5195 -11.5039 12.207 -11.8555 11.6895 -11.8555 C 11.1719 -11.8555 10.8789 -11.4844 10.8789 -10.9277 L 10.8789 -7.86133 L 7.83203 -7.86133 C 7.26562 -7.86133 6.89453 -7.55859 6.89453 -7.03125 C 6.89453 -6.51367 7.28516 -6.23047 7.83203 -6.23047 L 10.8789 -6.23047 L 10.8789 -3.33984 C 10.8789 -2.79297 11.1719 -2.41211 11.6895 -2.41211 Z"/>
  </g>
  <g id="" transform="matrix(1 0 0 1 304.924 1933)">
   <path d="M 14.9707 5.67383 C 21.9336 5.67383 27.6953 -0.078125 27.6953 -7.04102 C 27.6953 -14.0039 21.9238 -19.7559 14.9609 -19.7559 C 8.00781 -19.7559 2.25586 -14.0039 2.25586 -7.04102 C 2.25586 -0.078125 8.01758 5.67383 14.9707 5.67383 Z M 14.9707 3.85742 C 8.93555 3.85742 4.08203 -1.00586 4.08203 -7.04102 C 4.08203 -13.0762 8.92578 -17.9395 14.9609 -17.9395 C 21.0059 -17.9395 25.8594 -13.0762 25.8691 -7.04102 C 25.8789 -1.00586 21.0156 3.85742 14.9707 3.85742 Z M 14.9512 -1.06445 C 15.5176 -1.06445 15.8691 -1.45508 15.8691 -2.06055 L 15.8691 -6.13281 L 20.1074 -6.13281 C 20.6934 -6.13281 21.1133 -6.46484 21.1133 -7.02148 C 21.1133 -7.59766 20.7227 -7.93945 20.1074 -7.93945 L 15.8691 -7.93945 L 15.8691 -12.1875 C 15.8691 -12.8027 15.5176 -13.1934 14.9512 -13.1934 C 14.3848 -13.1934 14.0625 -12.7832 14.0625 -12.1875 L 14.0625 -7.93945 L 9.83398 -7.93945 C 9.21875 -7.93945 8.80859 -7.59766 8.80859 -7.02148 C 8.80859 -6.46484 9.23828 -6.13281 9.83398 -6.13281 L 14.0625 -6.13281 L 14.0625 -2.06055 C 14.0625 -1.47461 14.3848 -1.06445 14.9512 -1.06445 Z"/>
  </g>
  <text style="stroke:none;fill:black;font-family:-apple-system,&quot;SF Pro Display&quot;,&quot;SF Pro Text&quot;,Helvetica,sans-serif;font-weight:bold;" transform="matrix(1 0 0 1 263 1953)">Design Variations</text>
  <text style="stroke:none;fill:black;font-family:-apple-system,&quot;SF Pro Display&quot;,&quot;SF Pro Text&quot;,Helvetica,sans-serif;" transform="matrix(1 0 0 1 263 1971)">Symbols are supported in up to nine weights and three scales.</text>
  <text style="stroke:none;fill:black;font-family:-apple-system,&quot;SF Pro Display&quot;,&quot;SF Pro Text&quot;,Helvetica,sans-serif;" transform="matrix(1 0 0 1 263 1989)">For optimal layout with text and other symbols, vertically align</text>
  <text style="stroke:none;fill:black;font-family:-apple-system,&quot;SF Pro Display&quot;,&quot;SF Pro Text&quot;,Helvetica,sans-serif;" transform="matrix(1 0 0 1 263 2007)">symbols with the adjacent text.</text>
  <rect height="14" id="" style="fill:#00AEEF;stroke:none;opacity:0.4;" width="3" x="776" y="1919"/>
  <g id="" transform="matrix(1 0 0 1 779 1933)">
   <path d="M 10.5273 0 L 12.373 0 L 7.17773 -14.0918 L 5.43945 -14.0918 L 0.244141 0 L 2.08984 0 L 3.50586 -4.0332 L 9.11133 -4.0332 Z M 6.2793 -11.9531 L 6.33789 -11.9531 L 8.59375 -5.52734 L 4.02344 -5.52734 Z"/>
  </g>
  <rect height="14" id="" style="fill:#00AEEF;stroke:none;opacity:0.4;" width="3" x="791.617" y="1919"/>
  <text style="stroke:none;fill:black;font-family:-apple-system,&quot;SF Pro Display&quot;,&quot;SF Pro Text&quot;,Helvetica,sans-serif;font-weight:bold;" transform="matrix(1 0 0 1 776 1953)">Margins</text>
  <text style="stroke:none;fill:black;font-family:-apple-system,&quot;SF Pro Display&quot;,&quot;SF Pro Text&quot;,Helvetica,sans-serif;" transform="matrix(1 0 0 1 776 1971)">Leading and trailing margins on the left and right side of each symbol</text>
  <text style="stroke:none;fill:black;font-family:-apple-system,&quot;SF Pro Display&quot;,&quot;SF Pro Text&quot;,Helvetica,sans-serif;" transform="matrix(1 0 0 1 776 1989)">can be adjusted by modifying the width of the blue rectangles.</text>
  <text style="stroke:none;fill:black;font-family:-apple-system,&quot;SF Pro Display&quot;,&quot;SF Pro Text&quot;,Helvetica,sans-serif;" transform="matrix(1 0 0 1 776 2007)">Modifications are automatically applied proportionally to all</text>
  <text style="stroke:none;fill:black;font-family:-apple-system,&quot;SF Pro Display&quot;,&quot;SF Pro Text&quot;,Helvetica,sans-serif;" transform="matrix(1 0 0 1 776 2025)">scales and weights.</text>
  <g id="" transform="matrix(1 0 0 1 1289 1933)">
   <path d="M 2.83203 3.11523 L 4.375 4.6582 C 5.22461 5.48828 6.19141 5.41992 7.06055 4.46289 L 17.2754 -6.66016 C 17.7051 -6.36719 18.0957 -6.37695 18.5645 -6.47461 L 19.6094 -6.68945 L 20.3027 -5.99609 L 20.2539 -5.47852 C 20.1855 -4.95117 20.3516 -4.53125 20.8496 -4.0332 L 21.6602 -3.22266 C 22.168 -2.71484 22.8223 -2.68555 23.3008 -3.16406 L 26.5527 -6.41602 C 27.0312 -6.89453 27.0117 -7.54883 26.5039 -8.05664 L 25.6836 -8.87695 C 25.1855 -9.375 24.7754 -9.55078 24.2383 -9.47266 L 23.7109 -9.41406 L 23.0566 -10.0781 L 23.3398 -11.2207 C 23.4863 -11.7871 23.3398 -12.2559 22.7148 -12.8613 L 20.3027 -15.2539 C 16.7578 -18.7793 12.2266 -18.6719 9.11133 -15.5371 C 8.69141 -15.1074 8.64258 -14.5215 8.91602 -14.0918 C 9.15039 -13.7207 9.62891 -13.4961 10.2734 -13.6621 C 11.7871 -14.043 13.3008 -13.9258 14.7852 -12.9199 L 14.1602 -11.3379 C 13.9258 -10.752 13.9453 -10.2734 14.1797 -9.83398 L 3.01758 0.439453 C 2.08008 1.30859 1.97266 2.25586 2.83203 3.11523 Z M 10.6738 -15.1465 C 13.3398 -17.1387 16.6504 -16.8262 19.0527 -14.4141 L 21.6797 -11.8066 C 21.9141 -11.5723 21.9434 -11.3867 21.8848 -11.0938 L 21.5039 -9.53125 L 23.0762 -7.95898 L 24.043 -8.04688 C 24.3262 -8.07617 24.4141 -8.05664 24.6387 -7.83203 L 25.2637 -7.20703 L 22.5098 -4.46289 L 21.8848 -5.07812 C 21.6602 -5.30273 21.6406 -5.40039 21.6699 -5.68359 L 21.7578 -6.64062 L 20.1953 -8.20312 L 18.5742 -7.89062 C 18.291 -7.83203 18.1445 -7.83203 17.9102 -8.07617 L 15.7324 -10.2539 C 15.5078 -10.4883 15.4785 -10.625 15.6055 -10.9473 L 16.5527 -13.2227 C 14.9512 -14.7559 12.8418 -15.6055 10.8008 -14.9512 C 10.7129 -14.9219 10.6445 -14.9414 10.6152 -14.9805 C 10.5859 -15.0293 10.5859 -15.0781 10.6738 -15.1465 Z M 4.10156 2.41211 C 3.61328 1.91406 3.78906 1.61133 4.12109 1.30859 L 15.0781 -8.80859 L 16.3086 -7.57812 L 6.15234 3.34961 C 5.84961 3.68164 5.46875 3.7793 5.06836 3.37891 Z"/>
  </g>
  <text style="stroke:none;fill:black;font-family:-apple-system,&quot;SF Pro Display&quot;,&quot;SF Pro Text&quot;,Helvetica,sans-serif;font-weight:bold;" transform="matrix(1 0 0 1 1289 1953)">Exporting</text>
  <text style="stroke:none;fill:black;font-family:-apple-system,&quot;SF Pro Display&quot;,&quot;SF Pro Text&quot;,Helvetica,sans-serif;" transform="matrix(1 0 0 1 1289 1971)">Symbols should be outlined when exporting to ensure the</text>
  <text style="stroke:none;fill:black;font-family:-apple-system,&quot;SF Pro Display&quot;,&quot;SF Pro Text&quot;,Helvetica,sans-serif;" transform="matrix(1 0 0 1 1289 1989)">design is preserved when submitting to Xcode.</text>
  <text id="template-version" style="stroke:none;fill:black;font-family:-apple-system,&quot;SF Pro Display&quot;,&quot;SF Pro Text&quot;,Helvetica,sans-serif;text-anchor:end;" transform="matrix(1 0 0 1 3036 1933)">Template v.1.0</text>
  <text style="stroke:none;fill:black;font-family:-apple-system,&quot;SF Pro Display&quot;,&quot;SF Pro Text&quot;,Helvetica,sans-serif;text-anchor:end;" transform="matrix(1 0 0 1 3036 1951)">Generated from rectangle.grid.1x2.fill</text>
  <text style="stroke:none;fill:black;font-family:-apple-system,&quot;SF Pro Display&quot;,&quot;SF Pro Text&quot;,Helvetica,sans-serif;text-anchor:end;" transform="matrix(1 0 0 1 3036 1969)">Typeset at 100 points</text>
  <text style="stroke:none;fill:black;font-family:-apple-system,&quot;SF Pro Display&quot;,&quot;SF Pro Text&quot;,Helvetica,sans-serif;" transform="matrix(1 0 0 1 263 726)">Small</text>
  <text style="stroke:none;fill:black;font-family:-apple-system,&quot;SF Pro Display&quot;,&quot;SF Pro Text&quot;,Helvetica,sans-serif;" transform="matrix(1 0 0 1 263 1156)">Medium</text>
  <text style="stroke:none;fill:black;font-family:-apple-system,&quot;SF Pro Display&quot;,&quot;SF Pro Text&quot;,Helvetica,sans-serif;" transform="matrix(1 0 0 1 263 1586)">Large</text>
 </g>
 <g id="Guides">
  <g id="H-reference" style="fill:#27AAE1;stroke:none;" transform="matrix(1 0 0 1 339 696)">
   <path d="M 54.9316 0 L 57.666 0 L 30.5664 -70.459 L 28.0762 -70.459 L 0.976562 0 L 3.66211 0 L 12.9395 -24.4629 L 45.7031 -24.4629 Z M 29.1992 -67.0898 L 29.4434 -67.0898 L 44.8242 -26.709 L 13.8184 -26.709 Z"/>
  </g>
  <line id="Baseline-S" style="fill:none;stroke:#27AAE1;opacity:1;stroke-width:0.577;" x1="263" x2="3036" y1="696" y2="696"/>
  <line id="Capline-S" style="fill:none;stroke:#27AAE1;opacity:1;stroke-width:0.577;" x1="263" x2="3036" y1="625.541" y2="625.541"/>
  <g id="H-reference" style="fill:#27AAE1;stroke:none;" transform="matrix(1 0 0 1 339 1126)">
   <path d="M 54.9316 0 L 57.666 0 L 30.5664 -70.459 L 28.0762 -70.459 L 0.976562 0 L 3.66211 0 L 12.9395 -24.4629 L 45.7031 -24.4629 Z M 29.1992 -67.0898 L 29.4434 -67.0898 L 44.8242 -26.709 L 13.8184 -26.709 Z"/>
  </g>
  <line id="Baseline-M" style="fill:none;stroke:#27AAE1;opacity:1;stroke-width:0.577;" x1="263" x2="3036" y1="1126" y2="1126"/>
  <line id="Capline-M" style="fill:none;stroke:#27AAE1;opacity:1;stroke-width:0.577;" x1="263" x2="3036" y1="1055.54" y2="1055.54"/>
  <g id="H-reference" style="fill:#27AAE1;stroke:none;" transform="matrix(1 0 0 1 339 1556)">
   <path d="M 54.9316 0 L 57.666 0 L 30.5664 -70.459 L 28.0762 -70.459 L 0.976562 0 L 3.66211 0 L 12.9395 -24.4629 L 45.7031 -24.4629 Z M 29.1992 -67.0898 L 29.4434 -67.0898 L 44.8242 -26.709 L 13.8184 -26.709 Z"/>
  </g>
  <line id="Baseline-L" style="fill:none;stroke:#27AAE1;opacity:1;stroke-width:0.577;" x1="263" x2="3036" y1="1556" y2="1556"/>
  <line id="Capline-L" style="fill:none;stroke:#27AAE1;opacity:1;stroke-width:0.577;" x1="263" x2="3036" y1="1485.54" y2="1485.54"/>
  <rect height="119.336" id="left-margin" style="fill:#00AEEF;stroke:none;opacity:0.4;" width="12.4512" x="1384.63" y="1030.79"/>
  <rect height="119.336" id="right-margin" style="fill:#00AEEF;stroke:none;opacity:0.4;" width="12.4512" x="1502.6" y="1030.79"/>
 </g>
 <g id="Symbols">
  <g id="Black-L" transform="matrix(1 0 0 1 2839.87 1556)">
   <path d="M 35.791 -39.1113 L 151.221 -39.1113 C 164.697 -39.1113 170.996 -45.3125 170.996 -58.7891 L 170.996 -77.1973 C 170.996 -90.6738 164.697 -96.875 151.221 -96.875 L 35.791 -96.875 C 22.3145 -96.875 16.0645 -90.6738 16.0645 -77.1973 L 16.0645 -58.7891 C 16.0645 -45.3125 22.3145 -39.1113 35.791 -39.1113 Z M 35.791 26.5137 L 151.221 26.5137 C 164.697 26.5137 170.996 20.2637 170.996 6.83594 L 170.996 -11.6211 C 170.996 -25.0488 164.697 -31.2988 151.221 -31.2988 L 35.791 -31.2988 C 22.3145 -31.2988 16.0645 -25.0488 16.0645 -11.6211 L 16.0645 6.83594 C 16.0645 20.2637 22.3145 26.5137 35.791 26.5137 Z"/>
  </g>
  <g id="Heavy-L" transform="matrix(1 0 0 1 2545.45 1556)">
   <path d="M 34.2773 -39.4043 L 148.193 -39.4043 C 160.547 -39.4043 166.406 -45.166 166.406 -57.5684 L 166.406 -77.7832 C 166.406 -90.1367 160.547 -95.8496 148.193 -95.8496 L 34.2773 -95.8496 C 21.875 -95.8496 16.0645 -90.1367 16.0645 -77.7832 L 16.0645 -57.5684 C 16.0645 -45.166 21.875 -39.4043 34.2773 -39.4043 Z M 34.2773 25.4883 L 148.193 25.4883 C 160.547 25.4883 166.406 19.7266 166.406 7.37305 L 166.406 -12.8418 C 166.406 -25.1953 160.547 -30.957 148.193 -30.957 L 34.2773 -30.957 C 21.875 -30.957 16.0645 -25.1953 16.0645 -12.8418 L 16.0645 7.37305 C 16.0645 19.7266 21.875 25.4883 34.2773 25.4883 Z"/>
  </g>
  <g id="Bold-L" transform="matrix(1 0 0 1 2251.31 1556)">
   <path d="M 32.5195 -39.7949 L 144.824 -39.7949 C 155.908 -39.7949 161.279 -45.0195 161.279 -56.1523 L 161.279 -78.3691 C 161.279 -89.502 155.908 -94.7266 144.824 -94.7266 L 32.5195 -94.7266 C 21.3867 -94.7266 16.0645 -89.502 16.0645 -78.3691 L 16.0645 -56.1523 C 16.0645 -45.0195 21.3867 -39.7949 32.5195 -39.7949 Z M 32.5195 24.3652 L 144.824 24.3652 C 155.908 24.3652 161.279 19.1406 161.279 8.00781 L 161.279 -14.209 C 161.279 -25.3418 155.908 -30.5664 144.824 -30.5664 L 32.5195 -30.5664 C 21.3867 -30.5664 16.0645 -25.3418 16.0645 -14.209 L 16.0645 8.00781 C 16.0645 19.1406 21.3867 24.3652 32.5195 24.3652 Z"/>
  </g>
  <g id="Semibold-L" transform="matrix(1 0 0 1 1956.38 1556)">
   <path d="M 31.2988 -40.0391 L 142.48 -40.0391 C 152.734 -40.0391 157.715 -44.873 157.715 -55.2246 L 157.715 -78.8086 C 157.715 -89.1113 152.734 -93.9453 142.48 -93.9453 L 31.2988 -93.9453 C 21.0938 -93.9453 16.0645 -89.1113 16.0645 -78.8086 L 16.0645 -55.2246 C 16.0645 -44.873 21.0938 -40.0391 31.2988 -40.0391 Z M 31.2988 23.584 L 142.48 23.584 C 152.734 23.584 157.715 18.75 157.715 8.44727 L 157.715 -15.1367 C 157.715 -25.4395 152.734 -30.2734 142.48 -30.2734 L 31.2988 -30.2734 C 21.0938 -30.2734 16.0645 -25.4395 16.0645 -15.1367 L 16.0645 8.44727 C 16.0645 18.75 21.0938 23.584 31.2988 23.584 Z"/>
  </g>
  <g id="Medium-L" transform="matrix(1 0 0 1 1661.01 1556)">
   <path d="M 30.4199 -40.2344 L 140.723 -40.2344 C 150.293 -40.2344 155.029 -44.8242 155.029 -54.4922 L 155.029 -79.1504 C 155.029 -88.7695 150.293 -93.3105 140.723 -93.3105 L 30.4199 -93.3105 C 20.8008 -93.3105 16.0645 -88.7695 16.0645 -79.1504 L 16.0645 -54.4922 C 16.0645 -44.8242 20.8008 -40.2344 30.4199 -40.2344 Z M 30.4199 22.998 L 140.723 22.998 C 150.293 22.998 155.029 18.457 155.029 8.74023 L 155.029 -15.8691 C 155.029 -25.5371 150.293 -30.0781 140.723 -30.0781 L 30.4199 -30.0781 C 20.8008 -30.0781 16.0645 -25.5371 16.0645 -15.8691 L 16.0645 8.74023 C 16.0645 18.457 20.8008 22.998 30.4199 22.998 Z"/>
  </g>
  <g id="Regular-L" transform="matrix(1 0 0 1 1366.03 1556)">
   <path d="M 29.1992 -40.5273 L 138.428 -40.5273 C 147.119 -40.5273 151.562 -44.6777 151.562 -53.5645 L 151.562 -79.541 C 151.562 -88.3789 147.119 -92.5293 138.428 -92.5293 L 29.1992 -92.5293 C 20.5078 -92.5293 16.0645 -88.3789 16.0645 -79.541 L 16.0645 -53.5645 C 16.0645 -44.6777 20.5078 -40.5273 29.1992 -40.5273 Z M 29.1992 22.2168 L 138.428 22.2168 C 147.119 22.2168 151.562 18.0176 151.562 9.17969 L 151.562 -16.7969 C 151.562 -25.6348 147.119 -29.834 138.428 -29.834 L 29.1992 -29.834 C 20.5078 -29.834 16.0645 -25.6348 16.0645 -16.7969 L 16.0645 9.17969 C 16.0645 18.0176 20.5078 22.2168 29.1992 22.2168 Z"/>
  </g>
  <g id="Light-L" transform="matrix(1 0 0 1 1069.78 1556)">
   <path d="M 27.3438 -40.6738 L 139.307 -40.6738 C 146.777 -40.6738 150.635 -44.1895 150.635 -51.9043 L 150.635 -80.5176 C 150.635 -88.1836 146.777 -91.6992 139.307 -91.6992 L 27.3438 -91.6992 C 19.9219 -91.6992 16.0645 -88.1836 16.0645 -80.5176 L 16.0645 -51.9043 C 16.0645 -44.1895 19.9219 -40.6738 27.3438 -40.6738 Z M 27.3438 21.4355 L 139.307 21.4355 C 146.777 21.4355 150.635 17.8711 150.635 10.2051 L 150.635 -18.4082 C 150.635 -26.123 146.777 -29.6387 139.307 -29.6387 L 27.3438 -29.6387 C 19.9219 -29.6387 16.0645 -26.123 16.0645 -18.4082 L 16.0645 10.2051 C 16.0645 17.8711 19.9219 21.4355 27.3438 21.4355 Z"/>
  </g>
  <g id="Thin-L" transform="matrix(1 0 0 1 773.683 1556)">
   <path d="M 24.9023 -40.8691 L 140.576 -40.8691 C 146.289 -40.8691 149.414 -43.5059 149.414 -49.707 L 149.414 -81.7383 C 149.414 -87.9395 146.289 -90.5762 140.576 -90.5762 L 24.9023 -90.5762 C 19.1406 -90.5762 16.0645 -87.9395 16.0645 -81.7383 L 16.0645 -49.707 C 16.0645 -43.5059 19.1406 -40.8691 24.9023 -40.8691 Z M 24.9023 20.3613 L 140.576 20.3613 C 146.289 20.3613 149.414 17.6758 149.414 11.5234 L 149.414 -20.5566 C 149.414 -26.7578 146.289 -29.3945 140.576 -29.3945 L 24.9023 -29.3945 C 19.1406 -29.3945 16.0645 -26.7578 16.0645 -20.5566 L 16.0645 11.5234 C 16.0645 17.6758 19.1406 20.3613 24.9023 20.3613 Z"/>
  </g>
  <g id="Ultralight-L" transform="matrix(1 0 0 1 477.289 1556)">
   <path d="M 23.6816 -40.9668 L 141.162 -40.9668 C 146.045 -40.9668 148.779 -43.1641 148.779 -48.5352 L 148.779 -82.373 C 148.779 -87.793 146.045 -89.9902 141.162 -89.9902 L 23.6816 -89.9902 C 18.75 -89.9902 16.0645 -87.793 16.0645 -82.373 L 16.0645 -48.5352 C 16.0645 -43.1641 18.75 -40.9668 23.6816 -40.9668 Z M 23.6816 19.7754 L 141.162 19.7754 C 146.045 19.7754 148.779 17.5781 148.779 12.207 L 148.779 -21.6309 C 148.779 -27.0508 146.045 -29.248 141.162 -29.248 L 23.6816 -29.248 C 18.75 -29.248 16.0645 -27.0508 16.0645 -21.6309 L 16.0645 12.207 C 16.0645 17.5781 18.75 19.7754 23.6816 19.7754 Z"/>
  </g>
  <g id="Black-M" transform="matrix(1 0 0 1 2858.08 1126)">
   <path d="M 28.8574 -37.8418 L 121.777 -37.8418 C 133.057 -37.8418 138.184 -42.9688 138.184 -54.248 L 138.184 -67.5293 C 138.184 -78.8086 133.057 -83.9355 121.777 -83.9355 L 28.8574 -83.9355 C 17.5781 -83.9355 12.4512 -78.8086 12.4512 -67.5293 L 12.4512 -54.248 C 12.4512 -42.9688 17.5781 -37.8418 28.8574 -37.8418 Z M 28.8574 13.5742 L 121.777 13.5742 C 133.057 13.5742 138.184 8.39844 138.184 -2.88086 L 138.184 -16.1133 C 138.184 -27.3926 133.057 -32.5684 121.777 -32.5684 L 28.8574 -32.5684 C 17.5781 -32.5684 12.4512 -27.3926 12.4512 -16.1133 L 12.4512 -2.88086 C 12.4512 8.39844 17.5781 13.5742 28.8574 13.5742 Z"/>
  </g>
  <g id="Heavy-M" transform="matrix(1 0 0 1 2563.76 1126)">
   <path d="M 27.6367 -38.1836 L 118.213 -38.1836 C 128.613 -38.1836 133.398 -42.9688 133.398 -53.3691 L 133.398 -67.8711 C 133.398 -78.2715 128.613 -83.0566 118.213 -83.0566 L 27.6367 -83.0566 C 17.2363 -83.0566 12.4512 -78.2715 12.4512 -67.8711 L 12.4512 -53.3691 C 12.4512 -42.9688 17.2363 -38.1836 27.6367 -38.1836 Z M 27.6367 12.6465 L 118.213 12.6465 C 128.613 12.6465 133.398 7.86133 133.398 -2.53906 L 133.398 -17.041 C 133.398 -27.4414 128.613 -32.2266 118.213 -32.2266 L 27.6367 -32.2266 C 17.2363 -32.2266 12.4512 -27.4414 12.4512 -17.041 L 12.4512 -2.53906 C 12.4512 7.86133 17.2363 12.6465 27.6367 12.6465 Z"/>
  </g>
  <g id="Bold-M" transform="matrix(1 0 0 1 2269.71 1126)">
   <path d="M 26.2695 -38.5254 L 114.258 -38.5254 C 123.633 -38.5254 128.076 -42.9199 128.076 -52.3438 L 128.076 -68.2617 C 128.076 -77.6855 123.633 -82.0312 114.258 -82.0312 L 26.2695 -82.0312 C 16.8945 -82.0312 12.4512 -77.6855 12.4512 -68.2617 L 12.4512 -52.3438 C 12.4512 -42.9199 16.8945 -38.5254 26.2695 -38.5254 Z M 26.2695 11.6699 L 114.258 11.6699 C 123.633 11.6699 128.076 7.27539 128.076 -2.09961 L 128.076 -18.0664 C 128.076 -27.4414 123.633 -31.8359 114.258 -31.8359 L 26.2695 -31.8359 C 16.8945 -31.8359 12.4512 -27.4414 12.4512 -18.0664 L 12.4512 -2.09961 C 12.4512 7.27539 16.8945 11.6699 26.2695 11.6699 Z"/>
  </g>
  <g id="Semibold-M" transform="matrix(1 0 0 1 1974.83 1126)">
   <path d="M 25.3418 -38.7695 L 111.523 -38.7695 C 120.215 -38.7695 124.414 -42.9199 124.414 -51.6113 L 124.414 -68.5547 C 124.414 -77.2461 120.215 -81.3477 111.523 -81.3477 L 25.3418 -81.3477 C 16.6504 -81.3477 12.4512 -77.2461 12.4512 -68.5547 L 12.4512 -51.6113 C 12.4512 -42.9199 16.6504 -38.7695 25.3418 -38.7695 Z M 25.3418 10.9863 L 111.523 10.9863 C 120.215 10.9863 124.414 6.88477 124.414 -1.85547 L 124.414 -18.7988 C 124.414 -27.4902 120.215 -31.5918 111.523 -31.5918 L 25.3418 -31.5918 C 16.6504 -31.5918 12.4512 -27.4902 12.4512 -18.7988 L 12.4512 -1.85547 C 12.4512 6.88477 16.6504 10.9863 25.3418 10.9863 Z"/>
  </g>
  <g id="Medium-M" transform="matrix(1 0 0 1 1679.51 1126)">
   <path d="M 24.6094 -38.9648 L 109.424 -38.9648 C 117.627 -38.9648 121.631 -42.8711 121.631 -51.0742 L 121.631 -68.75 C 121.631 -76.9043 117.627 -80.8105 109.424 -80.8105 L 24.6094 -80.8105 C 16.4551 -80.8105 12.4512 -76.9043 12.4512 -68.75 L 12.4512 -51.0742 C 12.4512 -42.8711 16.4551 -38.9648 24.6094 -38.9648 Z M 24.6094 10.4492 L 109.424 10.4492 C 117.627 10.4492 121.631 6.54297 121.631 -1.66016 L 121.631 -19.3359 C 121.631 -27.4902 117.627 -31.3965 109.424 -31.3965 L 24.6094 -31.3965 C 16.4551 -31.3965 12.4512 -27.4902 12.4512 -19.3359 L 12.4512 -1.66016 C 12.4512 6.54297 16.4551 10.4492 24.6094 10.4492 Z"/>
  </g>
  <g id="Regular-M" transform="matrix(1 0 0 1 1384.63 1126)">
   <path d="M 23.6816 -39.209 L 106.738 -39.209 C 114.209 -39.209 117.969 -42.8711 117.969 -50.3906 L 117.969 -69.043 C 117.969 -76.5137 114.209 -80.127 106.738 -80.127 L 23.6816 -80.127 C 16.2109 -80.127 12.4512 -76.5137 12.4512 -69.043 L 12.4512 -50.3906 C 12.4512 -42.8711 16.2109 -39.209 23.6816 -39.209 Z M 23.6816 9.76562 L 106.738 9.76562 C 114.209 9.76562 117.969 6.15234 117.969 -1.36719 L 117.969 -20.0684 C 117.969 -27.4902 114.209 -31.1523 106.738 -31.1523 L 23.6816 -31.1523 C 16.2109 -31.1523 12.4512 -27.4902 12.4512 -20.0684 L 12.4512 -1.36719 C 12.4512 6.15234 16.2109 9.76562 23.6816 9.76562 Z"/>
  </g>
  <g id="Light-M" transform="matrix(1 0 0 1 1088.34 1126)">
   <path d="M 22.0215 -39.3555 L 107.568 -39.3555 C 113.916 -39.3555 117.139 -42.3828 117.139 -48.877 L 117.139 -69.873 C 117.139 -76.3672 113.916 -79.3945 107.568 -79.3945 L 22.0215 -79.3945 C 15.6738 -79.3945 12.4512 -76.3672 12.4512 -69.873 L 12.4512 -48.877 C 12.4512 -42.3828 15.6738 -39.3555 22.0215 -39.3555 Z M 22.0215 9.0332 L 107.568 9.0332 C 113.916 9.0332 117.139 6.00586 117.139 -0.488281 L 117.139 -21.4844 C 117.139 -27.9297 113.916 -30.957 107.568 -30.957 L 22.0215 -30.957 C 15.6738 -30.957 12.4512 -27.9297 12.4512 -21.4844 L 12.4512 -0.488281 C 12.4512 6.00586 15.6738 9.0332 22.0215 9.0332 Z"/>
  </g>
  <g id="Thin-M" transform="matrix(1 0 0 1 792.164 1126)">
   <path d="M 19.8242 -39.5508 L 108.643 -39.5508 C 113.477 -39.5508 116.064 -41.7969 116.064 -46.9238 L 116.064 -70.9961 C 116.064 -76.123 113.477 -78.3691 108.643 -78.3691 L 19.8242 -78.3691 C 14.9902 -78.3691 12.4512 -76.123 12.4512 -70.9961 L 12.4512 -46.9238 C 12.4512 -41.7969 14.9902 -39.5508 19.8242 -39.5508 Z M 19.8242 8.05664 L 108.643 8.05664 C 113.477 8.05664 116.064 5.81055 116.064 0.683594 L 116.064 -23.3887 C 116.064 -28.5156 113.477 -30.7617 108.643 -30.7617 L 19.8242 -30.7617 C 14.9902 -30.7617 12.4512 -28.5156 12.4512 -23.3887 L 12.4512 0.683594 C 12.4512 5.81055 14.9902 8.05664 19.8242 8.05664 Z"/>
  </g>
  <g id="Ultralight-M" transform="matrix(1 0 0 1 495.746 1126)">
   <path d="M 18.7012 -39.6484 L 109.229 -39.6484 C 113.281 -39.6484 115.479 -41.4551 115.479 -45.8984 L 115.479 -71.582 C 115.479 -76.0254 113.281 -77.832 109.229 -77.832 L 18.7012 -77.832 C 14.6484 -77.832 12.4512 -76.0254 12.4512 -71.582 L 12.4512 -45.8984 C 12.4512 -41.4551 14.6484 -39.6484 18.7012 -39.6484 Z M 18.7012 7.56836 L 109.229 7.56836 C 113.281 7.56836 115.479 5.76172 115.479 1.31836 L 115.479 -24.3652 C 115.479 -28.8086 113.281 -30.6152 109.229 -30.6152 L 18.7012 -30.6152 C 14.6484 -30.6152 12.4512 -28.8086 12.4512 -24.3652 L 12.4512 1.31836 C 12.4512 5.76172 14.6484 7.56836 18.7012 7.56836 Z"/>
  </g>
  <g id="Black-S" transform="matrix(1 0 0 1 2874.56 696)">
   <path d="M 22.5586 -37.3047 L 95.1172 -37.3047 C 103.906 -37.3047 107.91 -41.3086 107.91 -50.0977 L 107.91 -60.5469 C 107.91 -69.3359 103.906 -73.3398 95.1172 -73.3398 L 22.5586 -73.3398 C 13.7695 -73.3398 9.76562 -69.3359 9.76562 -60.5469 L 9.76562 -50.0977 C 9.76562 -41.3086 13.7695 -37.3047 22.5586 -37.3047 Z M 22.5586 2.92969 L 95.1172 2.92969 C 103.906 2.92969 107.91 -1.07422 107.91 -9.86328 L 107.91 -20.3125 C 107.91 -29.1016 103.906 -33.1055 95.1172 -33.1055 L 22.5586 -33.1055 C 13.7695 -33.1055 9.76562 -29.1016 9.76562 -20.3125 L 9.76562 -9.86328 C 9.76562 -1.07422 13.7695 2.92969 22.5586 2.92969 Z"/>
  </g>
  <g id="Heavy-S" transform="matrix(1 0 0 1 2579.63 696)">
   <path d="M 21.8262 -37.5488 L 92.334 -37.5488 C 100.537 -37.5488 104.346 -41.3574 104.346 -49.5605 L 104.346 -60.7422 C 104.346 -68.9453 100.537 -72.7539 92.334 -72.7539 L 21.8262 -72.7539 C 13.5742 -72.7539 9.76562 -68.9453 9.76562 -60.7422 L 9.76562 -49.5605 C 9.76562 -41.3574 13.5742 -37.5488 21.8262 -37.5488 Z M 21.8262 2.34375 L 92.334 2.34375 C 100.537 2.34375 104.346 -1.46484 104.346 -9.66797 L 104.346 -20.8496 C 104.346 -29.0527 100.537 -32.8613 92.334 -32.8613 L 21.8262 -32.8613 C 13.5742 -32.8613 9.76562 -29.0527 9.76562 -20.8496 L 9.76562 -9.66797 C 9.76562 -1.46484 13.5742 2.34375 21.8262 2.34375 Z"/>
  </g>
  <g id="Bold-S" transform="matrix(1 0 0 1 2284.9 696)">
   <path d="M 20.9473 -37.793 L 89.1602 -37.793 C 96.7773 -37.793 100.391 -41.3574 100.391 -48.9746 L 100.391 -60.9375 C 100.391 -68.5059 96.7773 -72.0703 89.1602 -72.0703 L 20.9473 -72.0703 C 13.3789 -72.0703 9.76562 -68.5059 9.76562 -60.9375 L 9.76562 -48.9746 C 9.76562 -41.3574 13.3789 -37.793 20.9473 -37.793 Z M 20.9473 1.66016 L 89.1602 1.66016 C 96.7773 1.66016 100.391 -1.9043 100.391 -9.52148 L 100.391 -21.4844 C 100.391 -29.0527 96.7773 -32.6172 89.1602 -32.6172 L 20.9473 -32.6172 C 13.3789 -32.6172 9.76562 -29.0527 9.76562 -21.4844 L 9.76562 -9.52148 C 9.76562 -1.9043 13.3789 1.66016 20.9473 1.66016 Z"/>
  </g>
  <g id="Semibold-S" transform="matrix(1 0 0 1 1989.56 696)">
   <path d="M 20.3613 -37.9883 L 87.0117 -37.9883 C 94.1895 -37.9883 97.6562 -41.4062 97.6562 -48.5352 L 97.6562 -61.084 C 97.6562 -68.1641 94.1895 -71.582 87.0117 -71.582 L 20.3613 -71.582 C 13.2324 -71.582 9.76562 -68.1641 9.76562 -61.084 L 9.76562 -48.5352 C 9.76562 -41.4062 13.2324 -37.9883 20.3613 -37.9883 Z M 20.3613 1.17188 L 87.0117 1.17188 C 94.1895 1.17188 97.6562 -2.19727 97.6562 -9.375 L 97.6562 -21.875 C 97.6562 -29.0039 94.1895 -32.4219 87.0117 -32.4219 L 20.3613 -32.4219 C 13.2324 -32.4219 9.76562 -29.0039 9.76562 -21.875 L 9.76562 -9.375 C 9.76562 -2.19727 13.2324 1.17188 20.3613 1.17188 Z"/>
  </g>
  <g id="Medium-S" transform="matrix(1 0 0 1 1693.89 696)">
   <path d="M 19.9219 -38.1348 L 85.3516 -38.1348 C 92.2363 -38.1348 95.5566 -41.4062 95.5566 -48.2422 L 95.5566 -61.1816 C 95.5566 -67.9688 92.2363 -71.2402 85.3516 -71.2402 L 19.9219 -71.2402 C 13.0859 -71.2402 9.76562 -67.9688 9.76562 -61.1816 L 9.76562 -48.2422 C 9.76562 -41.4062 13.0859 -38.1348 19.9219 -38.1348 Z M 19.9219 0.830078 L 85.3516 0.830078 C 92.2363 0.830078 95.5566 -2.44141 95.5566 -9.27734 L 95.5566 -22.2168 C 95.5566 -29.0039 92.2363 -32.2754 85.3516 -32.2754 L 19.9219 -32.2754 C 13.0859 -32.2754 9.76562 -29.0039 9.76562 -22.2168 L 9.76562 -9.27734 C 9.76562 -2.44141 13.0859 0.830078 19.9219 0.830078 Z"/>
  </g>
  <g id="Regular-S" transform="matrix(1 0 0 1 1398.55 696)">
   <path d="M 19.3848 -38.2812 L 83.252 -38.2812 C 89.6484 -38.2812 92.8223 -41.4551 92.8223 -47.8027 L 92.8223 -61.3281 C 92.8223 -67.627 89.6484 -70.8008 83.252 -70.8008 L 19.3848 -70.8008 C 12.9395 -70.8008 9.76562 -67.627 9.76562 -61.3281 L 9.76562 -47.8027 C 9.76562 -41.4551 12.9395 -38.2812 19.3848 -38.2812 Z M 19.3848 0.390625 L 83.252 0.390625 C 89.6484 0.390625 92.8223 -2.73438 92.8223 -9.13086 L 92.8223 -22.6562 C 92.8223 -28.9551 89.6484 -32.0801 83.252 -32.0801 L 19.3848 -32.0801 C 12.9395 -32.0801 9.76562 -28.9551 9.76562 -22.6562 L 9.76562 -9.13086 C 9.76562 -2.73438 12.9395 0.390625 19.3848 0.390625 Z"/>
  </g>
  <g id="Light-S" transform="matrix(1 0 0 1 1102.21 696)">
   <path d="M 17.9199 -38.4277 L 83.9844 -38.4277 C 89.3555 -38.4277 92.0898 -41.0156 92.0898 -46.4844 L 92.0898 -62.0605 C 92.0898 -67.4805 89.3555 -70.1172 83.9844 -70.1172 L 17.9199 -70.1172 C 12.5 -70.1172 9.76562 -67.4805 9.76562 -62.0605 L 9.76562 -46.4844 C 9.76562 -41.0156 12.5 -38.4277 17.9199 -38.4277 Z M 17.9199 -0.292969 L 83.9844 -0.292969 C 89.3555 -0.292969 92.0898 -2.88086 92.0898 -8.34961 L 92.0898 -23.9258 C 92.0898 -29.3457 89.3555 -31.9336 83.9844 -31.9336 L 17.9199 -31.9336 C 12.5 -31.9336 9.76562 -29.3457 9.76562 -23.9258 L 9.76562 -8.34961 C 9.76562 -2.88086 12.5 -0.292969 17.9199 -0.292969 Z"/>
  </g>
  <g id="Thin-S" transform="matrix(1 0 0 1 805.958 696)">
   <path d="M 15.9668 -38.5742 L 84.9121 -38.5742 C 89.0137 -38.5742 91.1621 -40.4785 91.1621 -44.7754 L 91.1621 -63.0371 C 91.1621 -67.334 89.0137 -69.2383 84.9121 -69.2383 L 15.9668 -69.2383 C 11.9141 -69.2383 9.76562 -67.334 9.76562 -63.0371 L 9.76562 -44.7754 C 9.76562 -40.4785 11.9141 -38.5742 15.9668 -38.5742 Z M 15.9668 -1.12305 L 84.9121 -1.12305 C 89.0137 -1.12305 91.1621 -3.02734 91.1621 -7.32422 L 91.1621 -25.5859 C 91.1621 -29.834 89.0137 -31.7871 84.9121 -31.7871 L 15.9668 -31.7871 C 11.9141 -31.7871 9.76562 -29.834 9.76562 -25.5859 L 9.76562 -7.32422 C 9.76562 -3.02734 11.9141 -1.12305 15.9668 -1.12305 Z"/>
  </g>
  <g id="Ultralight-S" transform="matrix(1 0 0 1 509.516 696)">
   <path d="M 14.9902 -38.6719 L 85.4492 -38.6719 C 88.8184 -38.6719 90.625 -40.1855 90.625 -43.8477 L 90.625 -63.5742 C 90.625 -67.1875 88.8184 -68.75 85.4492 -68.75 L 14.9902 -68.75 C 11.5723 -68.75 9.76562 -67.1875 9.76562 -63.5742 L 9.76562 -43.8477 C 9.76562 -40.1855 11.5723 -38.6719 14.9902 -38.6719 Z M 14.9902 -1.5625 L 85.4492 -1.5625 C 88.8184 -1.5625 90.625 -3.125 90.625 -6.78711 L 90.625 -26.4648 C 90.625 -30.127 88.8184 -31.6406 85.4492 -31.6406 L 14.9902 -31.6406 C 11.5723 -31.6406 9.76562 -30.127 9.76562 -26.4648 L 9.76562 -6.78711 C 9.76562 -3.125 11.5723 -1.5625 14.9902 -1.5625 Z"/>
  </g>
 </g>
</svg>
